<svg id="Camada_1" data-name="Camada 1" xmlns="http://www.w3.org/2000/svg" viewBox="0 0 1920 1080"><defs><style>.cls-1{fill:#fe157a;}.cls-2{fill:#fb1782;}.cls-3{fill:#d42078;}.cls-4{fill:#92239a;}.cls-5{fill:#e91b8b;}.cls-6{fill:#e81586;}.cls-7{fill:#5e1a80;}.cls-8{fill:#44187e;}.cls-9{fill:#db2579;}.cls-10{fill:#c3237d;}.cls-11{fill:#ca217b;}.cls-12{fill:#b1227d;}.cls-13{fill:#b72083;}.cls-14{fill:#bf207e;}.cls-15{fill:#5d2386;}.cls-16{fill:#9b2b81;}.cls-17{fill:#fefefe;}.cls-18{fill:#dd207a;}.cls-19{fill:#be2987;}.cls-20{fill:#ad2a86;}.cls-21{fill:#a31f7c;}.cls-22{fill:#8e2287;}.cls-23{fill:#862986;}.cls-24{fill:#4a1a7d;}.cls-25{fill:#6f2684;}.cls-26{fill:#912e85;}.cls-27{fill:#c6237f;}.cls-28{fill:#9a2d86;}.cls-29{fill:#a12b85;}.cls-30{fill:#81288b;}.cls-31{fill:#d22988;}.cls-32{fill:#7f2985;}.cls-33{fill:#732586;}.cls-34{fill:#792988;}.cls-35{fill:#76227c;}.cls-36{fill:#fcfcfc;}.cls-37{fill:#c51890;}.cls-38{fill:#7d1d9d;}.cls-39{fill:#fe1580;}.cls-40{fill:#fd187f;}.cls-41{fill:#f41786;}.cls-42{fill:#d9217c;}.cls-43{fill:#fe137d;}.cls-44{fill:#de188b;}.cls-45{fill:#f71384;}.cls-46{fill:#eb1585;}.cls-47{fill:#9e2398;}.cls-48{fill:#88219a;}.cls-49{fill:#8b2586;}.cls-50{fill:#802585;}.cls-51{fill:#e01e8e;}.cls-52{fill:#c42380;}.cls-53{fill:#dc168a;}.cls-54{fill:#b8217f;}.cls-55{fill:#b7297d;}.cls-56{fill:#701d9d;}.cls-57{fill:#581899;}.cls-58{fill:#691d9e;}.cls-59{fill:#761c9c;}.cls-60{fill:#861f9d;}.cls-61{fill:#511780;}.cls-62{fill:#49199a;}.cls-63{fill:#5c199b;}.cls-64{fill:#51179a;}.cls-65{fill:#e71f7b;}.cls-66{fill:#dd1989;}.cls-67{fill:#f41884;}.cls-68{fill:#e21e8b;}.cls-69{fill:#e91a86;}.cls-70{fill:#ee1484;}.cls-71{fill:#d1198b;}.cls-72{fill:#cd188f;}.cls-73{fill:#d7188d;}.cls-74{fill:#be1991;}.cls-75{fill:#aa1b95;}.cls-76{fill:#b31a93;}.cls-77{fill:#c91790;}.cls-78{fill:#d1188f;}.cls-79{fill:#911871;}.cls-80{fill:#701e9d;}.cls-81{fill:#6a1c9c;}.cls-82{fill:#631a9b;}.cls-83{fill:#bf1894;}.cls-84{fill:#c82191;}.cls-85{fill:#d21f8f;}.cls-86{fill:#da1f8e;}.cls-87{fill:#bf2293;}.cls-88{fill:#b92293;}.cls-89{fill:#9f1e99;}.cls-90{fill:#961d9a;}.cls-91{fill:#92268d;}.cls-92{fill:#51189a;}.cls-93{fill:#791f9c;}.cls-94{fill:#7f209c;}.cls-95{fill:#ab2395;}.cls-96{fill:#b22395;}.cls-97{fill:#dc207c;}.cls-98{fill:#d8227d;}.cls-99{fill:#7a2585;}.cls-100{fill:#742185;}.cls-101{fill:#952883;}.cls-102{fill:#bc1f80;}.cls-103{fill:#5d2484;}.cls-104{fill:#732d8b;}.cls-105{fill:#612086;}.cls-106{fill:#c62782;}.cls-107{fill:#b82484;}.cls-108{fill:#9d1b76;}.cls-109{fill:#ab2685;}.cls-110{fill:#8f2488;}.cls-111{fill:#a12a84;}.cls-112{fill:#8d1d77;}.cls-113{fill:#702187;}.cls-114{fill:#6c2488;}.cls-115{fill:#51217c;}.cls-116{fill:#531c83;}.cls-117{fill:#842c87;}.cls-118{fill:#601a9d;}.cls-119{fill:#4f1983;}.cls-120{fill:#431a83;}.cls-121{fill:#521b88;}</style></defs><path class="cls-1" d="M890,215.25c-1.37-1-.14-2.16-.09-3.24a16.74,16.74,0,0,1,0-8c.11-1.08-1.45-2.19.08-3.23,1.31-1.76-.24-4,1-5.79,1.61-12.3,7.25-22.72,15-32.17a47.77,47.77,0,0,1,5.49-5.71A54.9,54.9,0,0,1,934,143.24c5.75-.69,11.13-3.13,16.89-3.73,5-.53,10.14-1.29,15.13.47-.54,3.75-4.1,1.26-5.76,2.79a8.21,8.21,0,0,0,4.68,1.27c1.89.13,3.75.38,4.2,2.63.49,2.42-1.51,3-3.13,3.73a3,3,0,0,0-1.72,1.42c2.52,2.93,6.73,5.56,3.8,10.59-4.14,1.78-8.55.66-12.73.7-19.55.19-41.69,20.1-41.12,42.93.34,13.65,3,26.09,13.66,35.61a9.78,9.78,0,0,1,1.82,2.37,27.9,27.9,0,0,0,1.94,2.88c1.47,2.12,1.13,3.41-1.73,3.36a9.39,9.39,0,0,0-2,.3c-9.17,1.78-9.52,2.59-4.21,10,.77,1.06,2.13,2.09,1.1,3.41-1.17,1.49-2.85.78-4.05-.1-6.06-4.47-13-7.9-16.76-15.07a23.22,23.22,0,0,0-6.72-7.84,50,50,0,0,1-6.36-19C889.8,219.87,891.31,217.37,890,215.25Z"/><path class="cls-2" d="M897.29,241c4.53.11,5.57,4.37,7.63,7,2.68,3.44,4.75,6.78,9,9.12,3.43,1.9,6,5.62,10.88,7.15-1.91-2.78-3.16-5.14-4.92-7s-1.88-5.6.54-5.93c3.85-.54,7.19-3.36,11.39-2-.33-2.2-3-2.27-2.79-4.32,3.61-.42,5.71,1.73,7.51,4.39a7.88,7.88,0,0,0,.7,2.68c.52-.5.43-1.51,1.4-1.65,4.69.57,8.71,3.41,13.42,3.89,5.46,3.91,5.77,6.21,1.82,11.16-2.38,3-3.64,6-1.79,10.07,2.7,6,.76,12-2.51,17.1s-4.84,10.89-7.42,16.25c-3.79,7.62-8.83,14.44-13.63,21.42a4.26,4.26,0,0,1-3.24,2.09c-2.82-.67-3.26-2.78-1.41-4.3,4.53-3.71,4.79-9.19,6.62-14,.65-1.69.88-3.6,3-4.16,0,0,.93.38.31-.38-4.44-5.52-4.59-9.54-.56-14.85,1.3-1.72,1.3-1.72,4.36-1.12-1-2.05-1.9-2.32-3.59-.45-2,2.25-4.64,3.67-7.9,3.16-1.12-2.09.56-3.4,1.47-4.79,3.24-4.93,6.33-9.95,10-14.56.41-.52-.14.2,0-.43,0-.14-.52-.32-.88-.33-1.4-.86-2.22-2.41-3.77-3.06-12.7-4-22.16-12.36-29.88-22.81C901,247.4,898.33,244.64,897.29,241Z"/><path class="cls-3" d="M567,802.94c4.21,1.33,8.4,2.71,12.63,4,2.46.72,4-.56,5.34-2.54q15.78-23.18,31.64-46.28c10.23-14.91,20.58-29.75,30.66-44.77a19.36,19.36,0,0,1,7.76-6.47,15.16,15.16,0,0,1,6.93,0c10.38,3.77,11.66,13.31,5.69,21.9-20.55,29.54-40.79,59.3-61.18,89a17.93,17.93,0,0,1-2.43,2.42c-1.19-1.24-.5-2.55-.15-3.84a29.68,29.68,0,0,1,2.18-4c.19-.39.41-.76.63-1.13.95-1.68,2.3-3.08,3.3-4.72a28.1,28.1,0,0,1,2.39-3.79,11.07,11.07,0,0,0,2.81-4.07,31.09,31.09,0,0,1,3.15-4.89,16.3,16.3,0,0,0,2.8-3.55c2.25-4.08,5.4-7.5,8-11.3a17.41,17.41,0,0,0,2.87-4.24,26.68,26.68,0,0,1,2.28-3.11,18.25,18.25,0,0,0,1.88-3.41c7.19-9.85,13.56-20.28,20.94-30,.79-1.06,1.58-2.14,2.27-3.28,1-1.41,2-2.92,3.07-4.29a12.77,12.77,0,0,0,2.89-4.52c.48-1.07,1.15-2,1.55-3.13,1.7-4.66.31-9.18-3.48-11.38a9,9,0,0,0-12.05,2.31c-5.94,7.62-11,15.83-16.47,23.82C619.46,760.41,603.53,783,588.21,806c-3.61,5.42-4.49,5.63-10.71,3.38-40.29-14.56-83,10.78-88.81,53.13-2.24,16.36,1.71,31.76,10.84,45.67a73.14,73.14,0,0,0,15.62,16.09c1.11.9,2.16,1.85,2.23,3.43a1.76,1.76,0,0,1-1.43,1.38c-14.72-9.44-24.15-22.68-28.72-39.52a24.59,24.59,0,0,1-1.29-6.6c-1-1.94.28-4.19-.85-6.11A.85.85,0,0,0,485,876a23.49,23.49,0,0,1,0-10,.87.87,0,0,0,.1-.88c1.17-1.91-.22-4.2.91-6.12,1.51-12.2,7-22.6,14.65-32,11-13.49,25.36-21.23,42.41-24.15,2.39-.94,5,.21,7.38-.78h8.23C561.37,803.17,564.33,801.78,567,802.94Z"/><path class="cls-4" d="M1143,625l2.75,4c4.73,9.43,11.18,17.76,16.88,26.58.73,1.46,1.84,2.73,2.33,4.32.67,3.19,3.11,5.41,4.53,8.19,2.35,4.6,1.85,6.51-2.75,9-1,.54-3.46-.12-2.38,2.57.68,1.68.57,3.4-1.54,4s-4.65,0-5.25-1.75c-1.69-5.09-6.63-5.56-10.12-8.05-6.35-6.8-11-14.85-16.21-22.44-1.1-1.62-2.29-3.21-1.8-5.37a5.07,5.07,0,0,1,3.37-2.68,2.51,2.51,0,0,0,1.82-3.12c-1.94-6.36.92-10.82,5.46-14.7C1140.87,624.39,1141.93,624.67,1143,625Z"/><path class="cls-5" d="M979.11,274.08l-1.17,2c2.1,6.42,7.28,11,10.06,17.05.7,2.92,1.57,5.74,3.69,8,1.13,1.23,2.19,2.78,1.58,4.5-1.68,4.67-3.13,9.45-4.87,14-2.14,5.65-3,5.33-7.92,1.47-5.09-5.11-8.18-11.7-12.66-17.27-2.38-3-4.16-6.45-7.33-8.75-1.63-1.33-3.48-2.41-4.77-4.14a1.82,1.82,0,0,1,.26-1.34c1.95-1.79,3.87-1.47,5.81,0s4,3.1,4.68-1.14c.25-1.39,1.52-1.92,3-2.1,4.74-.57,6.44-2.94,5.24-7.6-.78-3.05-.49-5.24,2.9-6.18A1.81,1.81,0,0,1,979.11,274.08Z"/><path class="cls-6" d="M605,816c-.32,1.38-.63,2.76-.95,4.14l-.15,2.93c1.89,4.6,6.6,7.32,8.14,12.16.3.95.54,1.92.82,2.87,2.77,9.58,2,11.62-6.45,17.11-4.42,2.87-6.54,2.37-9.29-2.23a14.89,14.89,0,0,0-2.48-3.7c-1.67-1.4-2.41-3.88-5-4.3-3.41-2.93-6.13-6.57-9.85-9.18-14.85-10.42-38.13-10-52,1.05a43.22,43.22,0,0,0-13.44,49.94,20,20,0,0,1,1.68,5.72,4,4,0,0,1-.56,2.22c-1,1-1.81.41-2.67-.14-3.35-4.44-4.39-9.66-5-15a17.24,17.24,0,0,0-.75-5c-2.94-26.67,17-49.23,45.43-50.83a46.83,46.83,0,0,1,14.82,1.3c1.91.55,3.77,1.3,5.69,1.83a12.84,12.84,0,0,1,1.35.5c5.55,2.69,10.91,5.7,15.3,10.11,2.86,2.87,6.32,1.07,9.36,1.11,1.65,0,1-3.43,1.57-5.21,1.16-3.62.63-6.82-.1-10.42C599.9,820,600.92,816.57,605,816Z"/><path class="cls-7" d="M928,884.11c-1.28-.69-3.13.72-4.11-1.1-.14-1.19.68-1.63,1.57-2,5-1,10-.44,15-.48,19.18.29,38.35-.45,57.53-.07s38.57-.38,57.85,0c11,.48,21.9-.3,32.84,0a63.43,63.43,0,0,0,9.55,0c10.94,0,21.89-.13,32.83,0,15.63.39,31.25-.31,46.87-.08a52.48,52.48,0,0,1,8.95.43c2.57.86,5.23.77,7.89.77h93.64a56.29,56.29,0,0,1,7.46.2,3.68,3.68,0,0,1,2.39,1.4c.34,1.21.78,2.46-1.11,2.78-.1-.32-.21-.65-.32-1-9.76-1.17-19.5-.37-29.25.24-9.46.6-18.93.14-28.4.22a6.09,6.09,0,0,1-4.18-1.32h-13a6.13,6.13,0,0,1-4.69,1.29c-6.18-.5-12.49.24-18.51-.27-17.27-1.46-34.54.27-51.77-1h-27c-1.44.59-3,.33-4.44.33q-91.53,0-183,0C931,884.44,929.47,884.7,928,884.11Z"/><path class="cls-8" d="M1414.82,918.9l-2.93,2.88c-.66,2.59-3,3.12-5,4.16l-9,5.87a6.91,6.91,0,0,1-6,3,111.08,111.08,0,0,1-20,5.28c-5.33.38-10.65.8-16-.05a45,45,0,0,1-10.63-2.25c-2.93.44-5.14-1.1-7.34-2.67l-3-1.21a9.9,9.9,0,0,1-7-3.79c-2.72-1.16-5.37-2.43-7.08-5-.34-1,.28-1.43,1.12-1.67,2.12,0,3.78,1.19,5.44,2.28,17.55,11.42,36.6,14.1,56.41,8.14,16.6-5,29.21-15.81,37.66-30.94,7.5-13.42,10.7-27.86,8-43.27-.83-4.78-2.74-9.24-4.24-13.82a62.38,62.38,0,0,0-29-32.64,11.16,11.16,0,0,1-1.15-.79,10.76,10.76,0,0,0-5.86-2.2,74.81,74.81,0,0,0-29.8-4.84,14.63,14.63,0,0,0-5.39.46,12.52,12.52,0,0,1-3.17.33c-1.26-.27-2.83-.1-2.93-2,7.17-1.48,14.38-2.54,21.73-2.08,1.63,1,3.55,0,5.21.77,14.79,2.6,28,8.61,38.56,19.38,14.09,14.33,21.18,31.67,20.31,51.85-.44,10.4-3.61,20.25-7.93,29.7-.46,1.68-1,3.32-2.68,4.22l-5.65,7.82C1417.68,917.74,1416.29,918.35,1414.82,918.9Z"/><path class="cls-9" d="M782,503.89q10.6-15.72,21.2-31.43,36.52-54.21,73-108.42c4.95-7.36,10-14.65,15-22,1.38,0,1.45,1,1.54,2a8.41,8.41,0,0,1-1.25,3.43c-15.94,23-30.64,46.77-46.51,69.81-19,27.56-37.58,55.37-56.26,83.13-1.72,2.55-2.58,6.67-7.11,6.29A2.69,2.69,0,0,1,782,503.89Z"/><path class="cls-10" d="M782,503.89l0,3.13c.31,3.14-1.85,5.22-3.42,7.46-3.15,4.51-6.23,9.06-9.19,13.69-2.35,3.69-3.32,7.62-1.54,11.87,2.46,7,6.16,13.4,8.73,20.31a27.57,27.57,0,0,0,2.78,6.8c.23.38.43.79.62,1.19a59.12,59.12,0,0,0,3.49,8,11.26,11.26,0,0,1,.56,1.28c2.25,6,5.73,11.5,7.78,17.62,1.46,5.45-1.84,9.16-4.74,13-9.94,14.72-19.7,29.56-29.69,44.24-1.67,2.45-3,5.19-5.78,6.73a2.5,2.5,0,0,1-2.45-1.29c12.42-18.28,24.7-36.65,37.36-54.76,2.61-3.73,2.38-6.77.66-10.33-8.28-17-15-34.78-22.69-52.07a14,14,0,0,1-.63-2.86,10,10,0,0,1,.05-6c.38-3.26,2.8-5.38,4.41-8C772.66,517.18,776.91,510.26,782,503.89Z"/><path class="cls-11" d="M979.11,274.08,978,273c4.26-4,10.22-4.76,14.91-7.94,14.51-8.08,23.79-20.26,29-36,5.71-17.12,4.69-33.74-2.56-50.08a53.46,53.46,0,0,0-10.52-15.64,9.56,9.56,0,0,1-1.53-1.52,17.88,17.88,0,0,0-3.31-3.53c-7-6.67-15.77-10-24.46-13.6a58.1,58.1,0,0,0-11.58-2.6,3.29,3.29,0,0,1-2-1.16c-4.94-1.82-10-1.23-15-.43-4.51.73-9.09,1.32-13.4,3.06a3.15,3.15,0,0,1-3.69-.41L944,140c1.57-1,3.54.19,5.11-.89A.92.92,0,0,0,950,139a71.28,71.28,0,0,1,17,0c8,2,16,3.44,23.5,7.2,19.39,9.77,31.31,25.31,36.63,46.17a7.64,7.64,0,0,0,.94,1.72c1,1.61-.15,3.59.87,5.2.06.61.13,1.21.19,1.82a59.84,59.84,0,0,1,0,14.95,1,1,0,0,0-.12.94c-1.11,1.54.08,3.48-.85,5.05-3,10.34-6.83,20.3-13.75,28.74C1005,262.13,993.81,270.75,979.11,274.08Z"/><path class="cls-12" d="M516,929.06l1.1-1.14c3.43-.71,5.74,1.89,8.57,2.93s5.73,2.41,8.72,3.28c34.21,9.52,69-7.59,81.84-40.26a69.5,69.5,0,0,0,3.16-8.35c.78-2.3,1.91-4.26,4.59-4.7a17.9,17.9,0,0,1,3.35-.21c.87,0,1.74,0,2.62,0,5.8.2,11.61-.45,17.39.38,2.25.81,4.59.59,6.9.59,15.58,0,31.16,0,46.74.07,2.11,0,4.81-.92,6,2.08-26.49.07-53,.3-79.47.07-4.32,0-5.48,1.55-6.4,5.12-6.7,26.14-30.09,46.43-56.68,50.2C546.87,941.58,530.74,938.94,516,929.06Z"/><path class="cls-13" d="M652.13,830.17c-8.25-2.93-11.65-10.45-7-17.77,7.76-12.37,16.06-24.43,24.56-36.3,2.42-3.39,3.55-7.79,7.35-10.18a3,3,0,0,1,1,2.76c-1.5,5.26-5.24,9.15-8.3,13.44-4.8,6.75-9.17,13.8-14,20.51-2.36,3-4.46,6.19-6.68,9.3s-3.4,6.42-1.41,10.23,5.26,4.77,9.19,4.46c.66,0,1.33,0,2,0,14.77.14,29.53-.38,44.29-.13,29,0,58-.13,86.92-.07,1.67,0,3.33-.1,5,.06,10.53.09,21.06-.19,31.59-.05,2.44,0,5-.27,7.18,1.2a1.13,1.13,0,0,1,.06,1.71c-2.2,1.14-4.58.64-6.88.65C769,830,711,829.88,653.1,830Z"/><path class="cls-14" d="M677,769c0-1,0-2,0-3.08,5.17-10.66,12.84-19.7,19.29-29.52,13.09-19.93,26.49-39.65,39.81-59.43,4.3-6.38,8.73-12.66,13.1-19a1.89,1.89,0,0,1,1.84,1c.41,4.67-3.15,7.56-5.35,10.82-10.68,15.82-21.64,31.45-32,47.5-10.93,15.6-21.38,31.52-31.81,47.44C680.73,766.54,680.09,769.25,677,769Z"/><path class="cls-15" d="M1348,804.13c.76,1,1.9.81,3,.88,0,2.21-1.89,2-3.19,2.37-2.23.66-4.51,1.14-6.7,1.94-6.71,2.46-7.89,2.06-12-3.85-.57-.82-1.11-1.65-1.69-2.46-5.82-8.16-11.31-16.55-17.28-24.6-6.77-9.5-12.17-19.95-20.06-28.67-5.64-4.52-12.25-3-18.62-3.08q-22.07-.13-44.11-.32a4.91,4.91,0,0,1-3.22-1.11c-.41-1.16-.19-1.79,1.2-1.4,15.8-.18,31.65.38,47.38-.76,13.18-1,21.37,3.73,28.15,15.09,9.69,16.23,21.29,31.31,31.78,47.09,1.84,2.77,3.63,2.62,5.7,1.57A22.89,22.89,0,0,1,1348,804.13Z"/><path class="cls-16" d="M624.1,859.21q36.17-.11,72.33-.21c15.31,0,30.61,0,45.91,0a12,12,0,0,1,11.31,6.76c2.28,4.46,2.3,9.14-1.65,13.06a3.24,3.24,0,0,1-1-2.39,28.9,28.9,0,0,1,.32-3.46c.51-6.6-2.89-10.85-9.41-10.68-14.79.38-29.58,0-44.37.26-9.53-.15-19.07.45-28.58-.33a23.53,23.53,0,0,0-11.58-.33c-3,.74-6,.13-9.08-.19-5.71-.65-11.44-.14-17.16-.29C628.73,860.84,625.64,862.54,624.1,859.21Z"/><path class="cls-17" d="M882.72,831q-112.41,0-224.82,0c-1.93,0-4,.69-5.77-.77l-.13-.39c1.8-.54,3.64-.28,5.46-.28,45.64,0,91.29-.23,136.92.07,26.63.18,53.22-1.61,79.84-1a34.63,34.63,0,0,1,7,.34C882.08,829.31,883.16,829.59,882.72,831Z"/><path class="cls-18" d="M892,344l-.8-2q20.71-30.4,41.45-60.8a22.53,22.53,0,0,1,2.33-2.57c1-.74.46-2.79,2.37-2.68.59-.08.67-2.07,1.51-.62.56,1-.19,2.15-.89,3.16-4,5.79-8,11.64-12,17.47.55,1,0,1.73-.51,2.51a70.27,70.27,0,0,0-4.14,6.1c-9.08,12.41-17.85,25-26.53,37.71C894.05,343.15,893.55,344.46,892,344Z"/><path class="cls-19" d="M991.8,296.05q19.55,28.44,39.09,56.88c5,7.33,9.91,14.75,14.85,22.12-.21.83.08,1.91-1.11,2.26-2.72-.43-3-3.3-4.67-4.72-7.56-11.34-14.79-22.89-22.63-34-5.15-7.29-9.83-14.87-14.92-22.19-3.85-6.22-8.79-11.72-12.13-18.28C990.33,297.07,990.41,296.07,991.8,296.05Z"/><path class="cls-17" d="M928,884.11c17.49-.06,35-.16,52.48-.17q67,0,134,0c1.83,0,3.66.11,5.49.17-1.56,1.44-3.49.83-5.26.83q-90.71,0-181.41,0C931.52,884.94,929.59,885.55,928,884.11Z"/><path class="cls-20" d="M1045,377l.75-2q22.58,33.4,45.14,66.82c.17.25.11.65.16,1a.84.84,0,0,1,0,1.3,2.73,2.73,0,0,1-2.71-.81c-7.23-9.09-12.79-19.3-19.22-28.92a73.39,73.39,0,0,0-4.86-6.91c-6.67-8.75-12.12-18.32-18.38-27.35C1045.26,379.23,1044.38,378.33,1045,377Z"/><path class="cls-21" d="M752,876.93v1.84c-2.43,3-5.32,5.15-9.37,5.14-11.9,0-23.8-.14-35.71-.21-1.62-1.28-3.53-.7-5.3-.7-16.47,0-32.94,0-49.41-.06-1.74,0-3.7.66-5.18-1,1.4-1.53,3.28-1.39,5.07-1.4,6.58,0,13.16-.29,19.74-.16,23,.42,46-.31,68.95.06C745.13,880.55,747.92,877,752,876.93Z"/><path class="cls-17" d="M1235,884.11l59.93-.15c.79,0,1.71-.16,1.9,1-19.17-.77-38.16,3.43-57.35,2C1237.43,886.82,1234.82,887.66,1235,884.11Z"/><path class="cls-22" d="M882.72,831l-.72-1a1,1,0,0,1,.11-1.29c4.34-.42,5.69,3.19,7.78,5.79A164.81,164.81,0,0,0,904,853.32c3,4.69,6.64,8.91,9.76,13.51.81,1.19,2.06,2.18,1.73,3.88a2,2,0,0,1-1.56,1.36C908,866.4,904,859.25,899,852.84,893.47,845.66,888.15,838.27,882.72,831Z"/><path class="cls-17" d="M1147,884.11h75c-.54,5-4.19,2.88-6.42,2.34-1.76-.43-3.82.06-4.7-.26-5.65-2.05-11.36,2.57-16.75-.5-1.58-.9-3.22-.71-4.86-.71-12.33,0-24.66,0-37,0C1150.5,884.93,1148.57,885.56,1147,884.11Z"/><path class="cls-23" d="M1143,625c-.68,1.1-1.35.09-2,0-2.36-2-2.11-4.73-1.64-7.38,2-11.12,4.67-22.08,7.48-33a16,16,0,0,0,1-5.07,8.17,8.17,0,0,1,.29-1.39c.76-2.41,1.29-4.88,1.85-7.34.1-.46.24-.9.38-1.34.74-1.33.27-3.54,2.68-3.63a.89.89,0,0,1,0,1.25c-1.33,11-4.48,21.7-6.5,32.59-1.19,6.41-3.32,12.66-3.56,19.25a5.91,5.91,0,0,0,0,5.11C1143,624.35,1143,624.67,1143,625Z"/><path class="cls-24" d="M1322,924l-1.11,1.18a21,21,0,0,1-7.06-6.16c-1.22-.88-2.47-1.72-2.73-3.37-3.25-3-5.08-7-7.3-10.65a13.17,13.17,0,0,1-1.82-4c-2.3-4.78-4.54-9.58-4.85-15l.84-2c3.52.93,1.88,4.71,3.67,6.6,4.24,12.3,10.77,23.16,20.41,32A1.29,1.29,0,0,1,1322,924Z"/><path class="cls-25" d="M1225.3,743.83,1224,745c-3.34.43-4.06-2.76-6-4.3-6.77-9-12.39-18.87-18.81-28.15-1.1-2.1-3.14-3.78-3-6.47a2.36,2.36,0,0,1,.79-1.21c7.45,8.91,13.27,19,20.07,28.34C1219.73,736.79,1221.25,741.31,1225.3,743.83Z"/><path class="cls-26" d="M1153,567.08l0-1.08c-1.89-2.1-.67-4.35-.44-6.62.54-5.39,3.93-10.33,2.49-16a240.19,240.19,0,0,0-13.76-21.77c-1.84-3.56-5.18-6.29-5.88-10.5a2.16,2.16,0,0,1,.66-1.25c7.82,9.45,14.12,20,20.93,30.12.45.67.85,1.39,1.27,2.09a17.86,17.86,0,0,1-.11,6.91C1155.27,554.68,1155.68,561.31,1153,567.08Z"/><path class="cls-27" d="M611,835c-2.27-3.19-4-6.76-6.93-9.5-.76-.71-1.3-1.55-.18-2.45a64.31,64.31,0,0,1,17.6,31,44,44,0,0,1,.59,4.89l-.68.26c-2.68-1.24-2.26-4.1-3.27-6.22C615.33,847.13,613.8,840.82,611,835Z"/><path class="cls-28" d="M1136,509.85,1136,511c-3-.2-3.78-2.8-5-4.73a48.41,48.41,0,0,0-6.38-8.6,9.39,9.39,0,0,1-1.47-2.32,22.35,22.35,0,0,0-4-6.15c-1.91-4.28-6.36-7.13-6.86-12.19a2.29,2.29,0,0,1,.78-1.19c7.28,8.29,12.39,18.1,18.82,27C1133.43,505,1135.53,507,1136,509.85Z"/><path class="cls-29" d="M1113.05,475.84c0,.4-.06.8-.1,1.19-2.38.41-3-1.63-4-3-2-2.81-3.87-5.73-5.82-8.59-3.52-5.6-7.65-10.8-11-16.53-.85-1.47-2.55-2.82-1.2-4.87l.09-1.18A356.93,356.93,0,0,1,1113.05,475.84Z"/><path class="cls-30" d="M1164,660c-.67-1.33-1.33-2.67-2-4,.32-.4.43-1,1-1.1L1177.72,676c-.21.85.12,2-1.25,2.2-3.44-1.6-4.15-5.21-6-8C1168.26,666.84,1166,663.5,1164,660Z"/><path class="cls-31" d="M991.8,296.05c-.27.65-.53,1.31-.79,2-3.12-.24-2.68-3.33-4-5-2.63-3.92-5.41-7.75-7.79-11.82-.84-1.43-3-2.92-1.27-5.12Z"/><path class="cls-32" d="M1163,654.89l-1,1.1c-5.76-7.85-10.82-16.15-16-24.41-.55-.87-1.25-1.6-.26-2.56Z"/><path class="cls-33" d="M1197,704.84,1197,706c-3,.38-3.64-2.26-5-3.87a55.28,55.28,0,0,1-5.63-8.54c-1.26-2.47-3.55-4.41-3.84-7.38.15-.75.46-1.32,1.37-1.22C1188.45,691.47,1193.42,697.7,1197,704.84Z"/><path class="cls-34" d="M1183.81,685l-.85,1c-4.54-.76-5.39-4.29-6-8,.24-.65.49-1.3.74-2Z"/><path class="cls-35" d="M913.93,872.07,915,871a4.31,4.31,0,0,1,2.65,1.94c1.07,2.19,3.68,3.42,3.83,6.18-.24.71-.59,1.24-1.47.94A20.39,20.39,0,0,1,913.93,872.07Z"/><path class="cls-17" d="M1356,940.06l16,.05c-4.85,2-10.12-.06-15,1.49C1356.77,941.64,1356.29,940.6,1356,940.06Z"/><path class="cls-17" d="M1391.91,934.83l6-3C1397.09,936.49,1395.42,937.33,1391.91,934.83Z"/><path class="cls-36" d="M967,139l-17,0A32.42,32.42,0,0,1,967,139Z"/><path class="cls-17" d="M1328,930.14q3.49,1.9,7,3.79C1331.23,935.27,1328.89,934,1328,930.14Z"/><path class="cls-36" d="M1029.08,216l0-14.95A25.81,25.81,0,0,1,1029.08,216Z"/><path class="cls-17" d="M1338,935.14l7.34,2.67C1341.8,939.9,1339.56,938.43,1338,935.14Z"/><path class="cls-17" d="M1406.89,925.94l5-4.16C1412.69,926.12,1409.94,926.21,1406.89,925.94Z"/><path class="cls-17" d="M937.37,276,935,278.69c.19-2.15-1.16-3.76-2-5.55C934.94,273.39,936.81,273.71,937.37,276Z"/><path class="cls-17" d="M1414.82,918.9l2.73-3.11c1.45.77,1.7,1.86.71,3.15C1417.14,920.39,1416,919.32,1414.82,918.9Z"/><path class="cls-37" d="M624.1,859.21c2.16,1.5,4.64.41,6.93.85.09.23.18.47.26.71a2.17,2.17,0,0,1-1.1,1,12.83,12.83,0,0,1-5.34.29c-1.57-.43-3.12-.89-2.85-3l.11-.12Z"/><path class="cls-36" d="M485,866c0,3.33,0,6.65,0,10A11.7,11.7,0,0,1,485,866Z"/><path class="cls-38" d="M920,880l1-1c2.19-.21,3.71.5,3.94,2.94L923.92,883C921.7,883.21,921.32,881,920,880Z"/><path class="cls-36" d="M911.49,157.15c-1.65,2.08-3.14,4.31-5.49,5.71A8.4,8.4,0,0,1,911.49,157.15Z"/><path class="cls-36" d="M889.92,204.05v8A8,8,0,0,1,889.92,204.05Z"/><path class="cls-36" d="M567,802.94c-2.81,0-5.66.26-8.36-.86C561.46,802.31,564.41,801,567,802.94Z"/><path class="cls-36" d="M1158.13,549c0-2.31.07-4.61.11-6.91A7,7,0,0,1,1158.13,549Z"/><path class="cls-36" d="M550.44,802.08c-2.37,1.1-4.88.85-7.38.78C545.37,801.15,548,802.26,550.44,802.08Z"/><path class="cls-36" d="M662,706.83h-6.93A6.64,6.64,0,0,1,662,706.83Z"/><path class="cls-36" d="M890,215.25c1.44,2.1.93,4.46.92,6.76C889.16,220,890.35,217.5,890,215.25Z"/><path class="cls-17" d="M1302,901a6,6,0,0,1,1.82,4C1302.07,904.13,1300.36,903.3,1302,901Z"/><path class="cls-17" d="M1423.2,908a10.23,10.23,0,0,1,2.68-4.22C1425.92,905.75,1426.54,908.12,1423.2,908Z"/><path class="cls-36" d="M485.09,876.83c1.24,1.9.9,4,.85,6.11C484.3,881.09,485.31,878.88,485.09,876.83Z"/><path class="cls-36" d="M891,195c-.17,2,.52,4.07-1,5.79C890.31,198.88,889.21,196.7,891,195Z"/><path class="cls-17" d="M1311.1,915.6c1.16.92,2.43,1.75,2.73,3.37C1311.3,919.16,1310.75,917.75,1311.1,915.6Z"/><path class="cls-36" d="M486,859c0,2.08.35,4.22-.91,6.12C485.33,863.05,484.26,860.81,486,859Z"/><path class="cls-36" d="M763.94,532c0,2,0,4-.05,6A4.82,4.82,0,0,1,763.94,532Z"/><path class="cls-36" d="M1028.92,199.24c-1.1-1.6-.92-3.41-.87-5.2C1029.65,195.55,1028.79,197.48,1028.92,199.24Z"/><path class="cls-36" d="M949.13,139.09c-1.54,1.22-3.36.87-5.11.89C945.5,138.39,947.4,139.24,949.13,139.09Z"/><path class="cls-36" d="M1374.94,802.82a8.67,8.67,0,0,1-5.21-.77C1371.49,802.15,1373.38,801.38,1374.94,802.82Z"/><path class="cls-36" d="M1028.11,222c-.08-1.74-.25-3.5.85-5.05C1028.79,218.65,1029.61,220.52,1028.11,222Z"/><path class="cls-36" d="M1143,624c-1.62-1.7-1.22-3.41,0-5.11C1143,620.62,1143,622.32,1143,624Z"/><path class="cls-39" d="M980,144c9.27,3,18.13,6.73,25,14a8,8,0,0,0,3,3l1,1c2.88,4.05,5.94,8,8.24,12.44,3.07,5.91,1.16,9.62-5.49,10.27-4.61.45-9.55,2.58-13.54-1.83-5.9-7.13-12.7-13.09-21.29-16.88-3-1.31-6.7-1.06-8.91-4.05.63-5.1-2-8-7.18-9.76,2-1.56,3.13-3.1,5.33-3.25,1.19-.08,2.5-.39,2.14-2s-1.39-1.87-3-1.68a8.11,8.11,0,0,1-7.7-3c2.63-2.22,5.71-.77,8.46-1.23l2,0A19.8,19.8,0,0,0,980,144Z"/><path class="cls-40" d="M925,298l1-2c2.79-1.5,6.78-1,7.89-5.34.34-1.36,2.68-.81,3.22.33.78,1.64,2.64,3.15,1.8,5.19-.36.88-1.39.55-1.8-.47-1.61-4-2.47-1.66-3.1.45a3.93,3.93,0,0,1-1.88,2.74c-1.83.92-2.14,1.91-.24,3.19.46.31,1.05,1.25.89,1.57-2.23,4.54,1.36,5.25,5.5,6.83-9.46-.28-6.56,7.39-8.86,11.33-1.11,1.91-1.35,4.14-3.62,5.58-1.42.9-3.4,2.58-.82,4.6,1.48,2.23-.23,3.75-1.27,5.34-3.56,5.42-7.38,10.67-10.89,16.13-22.67,34.23-46.11,67.94-68.82,102.15-5,7.61-10.43,15-15.34,22.7-9.93,15.23-20.09,30.3-30.35,45.3a9.28,9.28,0,0,1-3,3.22c-3.19.87-4.53,2.58-5.8,6.1-2.08,5.76-2.79,13-9.72,16-.88.39-1.24,1.52-1.8,2.34-2.44,3.52-4.57,3.47-6.12-.51-1.43-3.7-3.31-7.18-4.85-10.82-2.9-4.91-.81-9.18,1.85-13.26,4.32-6.63,8.78-13.16,13.18-19.73,6.21-6.54,10.4-14.51,15.45-21.86q15.33-22.34,30.55-44.75c13.92-20.57,28-41,41.52-61.89,6.29-9.73,12.72-19.35,19.16-29,.65-1,1.13-2,2.28-2.54a15.12,15.12,0,0,0,3-5c7.73-12.77,17-24.53,25.38-36.84A6,6,0,0,1,921,304C922.62,302.21,924.57,300.62,925,298Z"/><path class="cls-41" d="M972,254l10-4c1.22-.89,3.2-.26,4-2h0c1.27-.62,2.7-2.51,3.92-1.08,3,3.53,4.76.51,7-.84,1.8-1.07,3.69-2.61,6-1.27a4.24,4.24,0,0,1,1.94,3.84c0,1.2-.22,2.28-1.66,2.69-1.84.53-3.41,3.33-2.23,4.18,3.28,2.36.41,3.29-.77,4.39-2.3,2.13-5.3,3.45-7.16,6.11-4.53,3.34-9.74,5.2-15,7-2.4,1.4-3.93,2.86-1.81,5.9,2.47,3.53-1.46,5.66-2.48,8.39-.89,2.38-2.48,1-4,.25-1.69-.81-2.35.52-2.59,2-.66,4.07-2.07,4.78-5,1.9-2-1.94-3.75-2.34-6.12-1.44-4,5.71-7.89,11.49-11.83,17.24-.72,1.06-1.49,2.32-3.18,1.75,2.09-5.07,3.1-10.55,6.44-15.16a22.56,22.56,0,0,0,4.39-15.7c-.29-2.81-4.12-4.67-1.93-8.31.9-1.49,1.08-3.64,2.51-4.72,4.85-3.67,3-6.87-.41-10.09l4,0a8,8,0,0,0,6,0l6,0C969.55,255.59,970.67,254.4,972,254Z"/><path class="cls-42" d="M941,309c4.09-3.84,6.34-9,9.62-13.43A20.1,20.1,0,0,1,956,290l.09,1.28c.2,2.22-1.33,3.7-2.4,5.32-12.15,18.27-24.69,36.27-36.76,54.59-1.19,1.82-2.08,4.37-5.14,3.86A1.84,1.84,0,0,1,912,353c3.56-5.38,7.07-10.79,10.71-16.11,1-1.53,2.13-3,2.32-4.86C931.79,325.36,935.82,316.79,941,309Z"/><path class="cls-1" d="M928.82,259.3c-.25.24-.78,1.06-1.14,1a1.56,1.56,0,0,1-1.06-1.92,1.15,1.15,0,0,1,1.45-1C928.87,257.58,928.94,258.27,928.82,259.3Z"/><path class="cls-1" d="M936,250a2.11,2.11,0,0,1,2,1c-.35.65.66,2.26-.86,1.92A1.83,1.83,0,0,1,936,250Z"/><path class="cls-43" d="M568,826c-7.22-.57-14.31-1.39-21.69-.23C524.8,829.14,507.65,847.46,508,870c0,1.66,0,3.32,0,5,1.15,1.51-.21,3.51,1,5,.26,5,2.24,9.45,4,14,4.3,5.19,2.83,11.8-3.68,16.51C504,914.32,503.3,914.22,499,909c-14.65-18.74-16.11-50.53-3.37-71,7.16-11.53,16.11-21.14,28.55-27,18-8.5,36.42-9.62,55-2.2,3.64,1.46,5.21.66,7.25-2.34q30.57-45.12,61.4-90.08c2.52-3.68,4.77-7.86,10.12-7.68,4.35.15,8.31,1.43,10.2,5.84s.94,8.76-2.16,12.52a4.79,4.79,0,0,0-3,4c-.86,1.43-1.21,3.24-3,4a6.55,6.55,0,0,0-2,3l-18,26.48c-1,1.5-2,3-3,4.5-1.65.35-2,1.58-2,3-.68,1-1.36,2-2,3-1.66.84-1.89,2.74-3,4L622,791c-.88,1.09-3.1.9-2.92,3q-1.5,2.49-3,5c-1.13,1.23-3.59,1.48-3,4q-1,2-2.06,4a3.65,3.65,0,0,1-2.16,1c-3.63,0-2.64,2-1.8,4h0c-3.6,3.87-8.63,5.32-13.11,7.69-1,.53-2.46.45-2.87,1.67-1.49,4.52-5,6-9.25,7-2,.49-3.36,1.93-4.71-1-.52-1.11-1.59,2.41-3.06.58l-1,0C571.8,826.21,569.62,826.84,568,826Z"/><path class="cls-44" d="M534,935c-6.21-1-11.45-4.38-17-7l-2-3c4.47-2,6.28-6.34,8.79-10.07,1.7-2.51.78-4.56-.86-6.69-1.41-1.83-4.13-3.09-3.14-6.17,2-1,3.1.67,4.19,1.76a76.82,76.82,0,0,0,10.89,8.64,7.53,7.53,0,0,0,3.52,1.81c6.22,1.36,7.71,6.15,8.44,11.47.46,3.3-3.32,8.36-7,9.18C538,935.3,536,936,534,935Z"/><path class="cls-45" d="M574,828c3.45-.4.47-2.38.82-3.54a4.24,4.24,0,0,1,.95,0c2.08.58,2.4,4.72,4,3.76,3.53-2.18,9.78-1.32,10.08-7.47.21-4.32,3.51-1.38,5.18-2.52,3.69-2.53,8-4.21,12-6.24.15,1.74-1.44,2.61-2,4-3.47,3-5,6.35-2.17,10.74.89,1.37,2.28,3.2-.56,4.41-1.95.84-.34,2.29-.28,3.44.18,4.15-1.7,4.5-5.45,5C585.93,841.15,582.38,830.11,574,828Z"/><path class="cls-46" d="M520,902c.19,2.84,2.68,4,4.29,5.79,2.49,2.7,2.83,5.55.43,8.12-3,3.24-3.46,9.35-9.74,9.09a47.61,47.61,0,0,1-16-16c2.05.54,2.87,4.12,5,3.09,3-1.41,6.09-2.85,8-6.18,2.27-4,4.19-7.63,1-11.91l2,1C518.57,896,519.85,898.58,520,902Z"/><path class="cls-45" d="M607,812c-.27-1.82-3.73.22-3.19-2.71.47-2.6,2.37-2.29,4.17-2.28h3Z"/><path class="cls-45" d="M613.05,803c-1.07-.57-2.23-1.27-1.51-2.65,1-1.83,2.87-1.25,4.49-1.35C616,801,614.63,802.08,613.05,803Z"/><path class="cls-45" d="M663.05,731c-1.62-3.27-1.26-5.08,3-4C666,729,664.6,730.08,663.05,731Z"/><path class="cls-45" d="M658.06,738c-1-2.12.32-2.68,2-3A3.18,3.18,0,0,1,658.06,738Z"/><path class="cls-45" d="M630,779c.33-1.83.61-3.69,3-4C632.23,776.47,631.82,778.24,630,779Z"/><path class="cls-45" d="M619.05,794c-1.18-3.09,1.52-2.43,2.93-3A6.07,6.07,0,0,1,619.05,794Z"/><path class="cls-45" d="M635,772c-.3-1.64-.92-3.47,2-3Z"/><path class="cls-47" d="M1142,521c5.59,6.37,9.17,14.09,14,21,1.85,5.72-1.77,10.58-2.59,15.88-.63,4-1.65,8.06-2.4,12.1h0c-1.41,2.48-1.17,5.37-2,8,0,.33,0,.66,0,1-1.22,1.48.18,3.49-1,5-1.9,8.51-3.68,17-5.76,25.52-1.26,5.13-2.32,10.2-1.24,15.48,0,1.16.2,2.63-.92,3.2-4.83,2.44-5.66,6.16-4.13,11,1.67,5.33-3.19,5.2-6,6.79a2,2,0,0,1-2.29-.5c-5.68-7.82-11.94-14.74-9.65-26.29,4.36-21.91,8.64-43.84,13.35-65.68,1.16-5.37-1.23-9.25-3-13.59,1.39-3.78,3.86-2.72,6.29-1.3,1,.57,1.5,1.79,2.56,2.3,1.73.84,3.59,1.25,5-.39s.61-4.2,1.63-6.13c1.27-2.38.11-3.59-1.72-5.31C1139.76,526.89,1141.39,523.76,1142,521Z"/><path class="cls-48" d="M1177,678c2.27,2.47,2.67,6.32,6,8l4,7c1.66,3.22.79,5.71-2.2,7.59a17.07,17.07,0,0,0-4.41,4.63c-3.61,4.91-5,5.08-9.66,1.58-2.93-1.09-4-3.88-5.74-6.12-4.17-5.61-7.76-11.62-11.85-17.3-1.46-2.17-2.87-4.36-4.41-6.48-.82-1.14-2-2.32-.73-3.9,2.26,1,4.51,2.11,6.81,3,1.3.54,2.81,1.34,2.76,2.58-.15,4,2.87,5,5.07,4,3.37-1.63-.66-3.61-1-5.32.85-1.38,1.82-.67,2.75-.72,4.56-.23,6-3.41,4.3-7.47-1.35-3.18-4.84-5.2-4.7-9.09Z"/><path class="cls-49" d="M1129,539c8.36,9.91,2,20.21.27,30.07-3.33,18.47-7.57,36.77-10.64,55.29a10.34,10.34,0,0,0,.67,5.76A52.41,52.41,0,0,0,1130,646l2,5a2,2,0,0,1-1.5.47,60.84,60.84,0,0,1-15.22-22.31c-.82-2.08-.13-4.28.22-6.41,3.7-22.67,9-45,13.48-67.52,1-5.06,1.25-9.4-2.16-13.53a5.71,5.71,0,0,1-1.41-3.67,1.79,1.79,0,0,1,.82-1.29C1127.85,536.63,1128.59,537.61,1129,539Z"/><path class="cls-50" d="M1130.57,651.13,1132,651q8,11,16,22c1.16,3.84,4.68,6.26,6,10a1.56,1.56,0,0,1-1.55,1.28,5.64,5.64,0,0,1-2.82-2.69c-5.71-8.75-11.78-17.25-17.61-25.91C1131.11,654.32,1129.9,653,1130.57,651.13Z"/><path class="cls-51" d="M987,293l4,5c4,6,8.81,11.45,12,18,1.6,2.1,2.09,4.86,4,6.76.49.49,1,1.29.71,1.76-2.37,4,1.41,8.71-1.4,12.71-1.45,2.06.17,2.45,1.76,2.79,1.16.25,2.34.65,2.24,2.16a2.53,2.53,0,0,1-2.32,2.25c-2.17.34-4.26,1.86-6.63.39-1.69-1.06-1.71,2.09-3.34,1.56a1.48,1.48,0,0,1-1.53-1.21c-4.4-7-9.47-13.53-14-20.45-.85-1.3-3-2.5-1.56-4.7l4.44,3.46c1.12-1.52-.09-4.3,2.61-4.79.38-.07,1-1.37.81-1.55-3.42-4.07,1.15-5.91,2.41-8.6s1.54-5-.79-7.1C988,299.18,987.32,296.17,987,293Z"/><path class="cls-52" d="M981,320c3,7.17,8.81,12.49,12.66,19.11,1.14,1.95,3,3.49,3.37,5.87a.8.8,0,0,1-1.4.14q-17.52-25.53-35.05-51.07c6.08,3.57,8.31,10.3,12.61,15.34C976,312.75,977.58,317.07,981,320Z"/><path class="cls-53" d="M611,835c3.94,5.43,6,11.69,8,18,1.15,5.22,2.18,10.43-2.79,14.48-6.13,5-15,2.07-16.61-5.52a11.73,11.73,0,0,0-1.07-3.27c-1-3.62-3.8-6.64-3.54-10.67,2.22,1,2.51,3.35,3.58,5.15.76,1.3,1.35,2.66,3.15,2.78s12.26-7.09,11.65-8.32c-1.55-3.15-.13-6.7-1.85-9.73A8.83,8.83,0,0,1,611,835Z"/><path class="cls-54" d="M595,848l4,10c9.23,21.8-3.7,43.4-17,53.09-1.36,1-2.78,1.87-4.6,1.3-1.4-1.2.14-1.79.55-2.61,14.27-10.19,21.88-23.76,21-41.59-.4-8.53-3.58-16.12-8-23.27C593.61,844.27,593.5,847.18,595,848Z"/><path class="cls-55" d="M578,909.75c-.3.75-.61,1.49-.92,2.24-.09,2.62-2.34,3-4.07,3.65-10.84,4.18-21.75,5.37-32.63.13-2.07-1-4.44-1.34-6.3-2.8-5.51-2.58-9.35-7.3-14-11l-5-7c0-.8.09-1.6.14-2.41,6.46,10.27,15,17.88,26.86,21.4C554.63,917.68,566.5,915.5,578,909.75Z"/><path class="cls-45" d="M568,826c1.77.42,4.34-1.22,5,2C571.27,827.55,569.43,827.32,568,826Z"/><path class="cls-46" d="M509,880c-1.62-1.42-.75-3.32-1-5C509.7,876.38,508.81,878.29,509,880Z"/><path class="cls-56" d="M1131,881.94h-33a17.89,17.89,0,0,0-9,0h-33c0-2.48,2.4-3.38,3.4-5.22.91-1.68,1.82-.29,2.7.42,3,2.43,6.11,2.11,9.26.24a3.39,3.39,0,0,0,1.89-3.67c-.57-5.32-.38-5.48,4.8-6a2.66,2.66,0,0,0,2.14-.64c-2.63-2.5-6.24-1.83-9.16-2.46-6.45-1.41-13.17-1.3-19.8-1.25-4.33,0-8.65,0-13-.42-1-.09-2.51-.27-2.24-2,.12-.73,1-.8,1.63-1,25-.16,49.91-.06,74.85,0,7.39.87,14.84.8,22.28,1.08a33.55,33.55,0,0,1,7.84,1.23c2.13.6,3.9,3.24,6.58.8.67-.61,2.23.07,3.07,1.06,1.59,1.89,1.6,9.42-.52,10.75-1.66,1-.12.72.13,1a3.63,3.63,0,0,1,.71,4.14c-.61,1.63-2.07,1.41-3.38,1.42a95,95,0,0,1-10.94-.28C1135.79,880.89,1133.33,880.75,1131,881.94Z"/><path class="cls-57" d="M1301,891c-2.66-1.63-1-5.07-3-7l-1-1c-3.91-1.14-7.91-.44-11.86-.47-12.14-.11-24.28-.06-36.41,0-1,0-2.12,0-2.08-1.42a1.68,1.68,0,0,1,2.09-1.6c6,.81,11.84-1.59,17.81-.16,5.71,1.37,9-3.07,13.34-6-3.77,1.15-5.32,0-5.78-3.7-.89-7-7-5.35-11.5-6.29-1.75-.36-3.68.18-5.39-.59s-2.09-1.7,0-2.57c10.93-.31,21.85-.05,32.77-.14,2,0,4,.2,5.86-.65a3.56,3.56,0,0,0,2-2.63c.64-6.73,3.58-12.64,6.55-18.54,2.82-2.88,3.21-7.76,7.63-9.34a2.42,2.42,0,0,1,.88,2.23c-1,3.68-1.28,6.38,4.14,5.69,1.83-.23,1.85,1.94.89,3.39-.8,1.21-2.54,1.64-3,4.44,5.17-4.59,9.41-8.88,13.75-13s7.7-5,13.33-2.74c.55,1.45-.51,2.18-1.42,2.79a48.86,48.86,0,0,0-19.06,22.66,4.36,4.36,0,0,1-.9,1.17c-5.21,2.44-2.45,7-2.83,10.71a3.15,3.15,0,0,1-.72,1.17c-.88.78-2.08.06-3.07.53,1.59-.27,2.45.68,3.3,1.68a4.77,4.77,0,0,1,.54,1.3c.19,1.78,0,3.33-2.17,3.79-4.28.89-4.37,3.66-2.58,6.67a8.77,8.77,0,0,1,.86,7.09c-.68,2.8-1.5,4.57-4.46,2.09-.36-.29-.59-.84-1.1-.41-4.31,3.56-4.23-.7-5.29-2.74C1303.17,888.81,1304.42,891.19,1301,891Z"/><path class="cls-58" d="M1131,881.94c1.75-2,3.93-2.27,6.36-1.74a38.35,38.35,0,0,0,10.36.74c1.52-.08,3.52.73,4.14-1.63.52-2-.41-3.09-2.24-3.78-.47-.18-.68-1-1-1.56,1-1.29,3.22,2.24,3.22-.85s1.68-6.74-1.23-8.78-3.4,1.6-4.48,3.77c-1.11-4.36-6.27-5.81-12.2-5.81-6.62,0-13.4.57-19.94-1.3,1.68-1.56,3.77-1,5.7-1q30.61,0,61.21,0c6,1.37,12.22.22,18.28,1.62,3.89.89,6,2.49,5.13,6.82a2.79,2.79,0,0,0,.59-2.51c-.14-1.38-1.94-2.87-.43-4s3.63-.73,5.2.17c3,1.73,6.51,2.63,9.08,5.11,2.72,2.62,2.4,5.14-1.08,6.49-3.3,1.28-6.33,2.52-8,6.07-.86,1.88-2.7,2.11-4.71,1.18a50.51,50.51,0,0,1-5.4-3.25c-1.32,3.4-4,4.59-7.37,4.81-1.75-.2-3.57.47-5.24-.47Z"/><path class="cls-38" d="M998,882H940c.56-2.81,2.92-2.27,4.71-2.29,4.66,0,9.31-.33,13.95-.61,7-.42,9.48-4,7.56-10.61-.43-1.5-2-1.55-3.16-1.93a56.9,56.9,0,0,0-18.08-3.3c-1.66,0-5,1.38-4.56-2.76,3.19-1,6.47-.27,9.7-.49,6.92,0,13.84-.05,20.75,0a35.11,35.11,0,0,0,7.92.63c11-.51,21.88.79,32.83.09,2.18-.14,4.39,0,5.31,2.67,1.33,3.83,3.3,2.57,4.88.35,1.06-1.48,1.87-2.8,3.91-2s3.26,2.4,2.5,4.7c-1,2.91,1.23,5.06,1.62,7.65.71,4.76,0,5.88-4.69,6.42-7.24.82-14.53.73-21.8,1C1001.57,881.53,999.71,880.94,998,882Z"/><path class="cls-59" d="M998,882c5.18-2,10.64-.83,16-1.48,4.53-.55,9.39,0,13.56-1.49,3.61-1.27,1.07-5.5.06-7.29-1.31-2.32-2.08-3.66-.42-6,1.4-2-.86-2.4-2-3.08-2.3-1.38-2.31,1.75-2.3,1.86.67,4.76-3,1.81-4.53,2.52-2.19,1-2.37-.64-2.36-2.3,0-3.59-2.73-2.66-4.68-2.67-11.87-.06-23.73,0-35.6,0-1.3,0-2.7.26-3.69-1,1.34-1.35,3.08-1,4.7-1q27.28,0,54.59,0c1.62,0,3.35-.34,4.7,1a3.19,3.19,0,0,0,2.7,1c10.93.27,21.87.3,32.76,1,2.71.18,5.2,3.06,8.12.21.42-.4,1.26.57,1,1.23-1,2.62,1.2,2.5,3.19,2.85-2.48,2.63-5.1,1.28-7.35,1.69-1.62.29-3.86.31-2.49,2.81,1.15,2.1,2,4.66,0,5.68-2.59,1.3-5.21,4.43-8.55,2.52-1.48-.84-4.19.68-4.62-2.54-.17-1.26-.75.07-.76.45-.07,2.63-3,2.36-4,4Z"/><path class="cls-60" d="M940,861c5,2.19,10.43.39,15.63,1.73,2.89.75,6,1.62,8.77,2.41,4.14,1.2,2.74,6.55,3.41,10.12.52,2.75-2.11,3.83-4.47,4.43-5.8,1.49-11.74,1.06-17.63,1.29-1.92.08-4-.76-5.69,1l-15,0L921,879c-1-2.27-3.93-3.18-4-6,5.18.43,11.5-6,11.47-11.41,0-2.1-.43-4.26.19-6.36.88-.92,1.65-.39,2.42.18a31.5,31.5,0,0,0,3.19,3.45l-.15-.12C935.49,861,938.52,859,940,861Z"/><path class="cls-61" d="M1187,882l6,0c16.56-2.42,33.22-1.38,49.85-1.48a5.91,5.91,0,0,1,4.13,1.48c15,0,29.89,0,44.83.06,1.75,0,3.7-.66,5.17,1q-52.15,0-104.3,0C1190.77,882.93,1188.64,883.68,1187,882Z"/><path class="cls-58" d="M1089,881.93a9.27,9.27,0,0,1,9,0Z"/><path class="cls-62" d="M1322,924c0-.33,0-.65,0-1,1.15-2.69,3.33-3,5.78-2.37,1.81.44,2.84,0,3.08-2,.38-3.18.14-6.81,5.21-6.41,1.11.08,1.74-1.89,2.93-2.53,2.16-.35,3.82.89,5.62,1.73a44,44,0,0,0,36.64,1.62c19.15-7.35,27.86-22,29.35-41.79.2-2.66-1.34-5.24-.19-7.89.71-1,1.9-1.26,2.48-.36,2.29,3.53,6.49,6.36,4.67,11.57-.11.3.16.62.43.85,3.68-3.85,5.11-7.91,2.24-13-1.2-2.15-1.39-4.92,1.35-6.57,3.32-2,2.76-4.36,1.1-7.11-.76-1.25-2.92-2.41-1.13-4.2,1.48-1.46,3.06-.59,4.45.49,6.47,13,7.11,26.44,3.82,40.55-3.71,15.9-12.18,28.61-24.62,38.53a63.09,63.09,0,0,1-36.48,14C1351.29,939,1336,933.72,1322,924Z"/><path class="cls-63" d="M1342,829c-1.75-.12-3.92,1.12-4.89-1.52-1.2,3.91-6,1.72-8.11,5.12-1.65,2.7-3.82,5.72-7.5,6.9-2.07.66-1.51,4.18-4.37,5-.94.27-1.9,2.74-3.25,1.44-1.1-1.07-.54-3.15.49-4.57,1.89-2.63,1.86-2.43-1.18-3.54-1.93-.7-5.92-1.06-1.73-4.56.8-.68.39-2.82.54-4.29-1.12-3.56,3.66-4.3,3.54-7.39a2,2,0,0,1,.66-1.14c3.33-3.46,6.84-6.59,6.42-12.29-.22-3,3.33-4.28,5.37-6.17,3.57,6.65,8.14,9.86,15.59,5.13,2.12-1.34,5.15-.58,7.41-2.1l3,0c1.51-1.13,3.48.2,5-.94,10-.18,19.82.19,29,4.74.82.41,2,.19,3,.26,1,.24-1.61,1.6.43,1.47A6.49,6.49,0,0,1,1396,812h0a3.24,3.24,0,0,1-1.06,4c-2.94,2.15-4.72,4.47-4.71,8.56,0,3-3.65,3.34-6.09,4.27-5-.23-9.6-2.7-14.66-2.46-8.24-.19-16.45-.22-24.24,3.12A2.9,2.9,0,0,1,1342,829Z"/><path class="cls-64" d="M1385,828c2-2,6.81-2.4,3.6-7.31-.36-.55,2.71-4.45,4.74-5.14,2.26-.77,1.53-2.63,2.66-3.55,14.42,7,24.25,18.13,30,33-.75.28-1.4.69-2.22-.12s-1.45.1-2.13.52c4.59,4.62,5.74,8.25,2,10.67-5.11,3.26-2.15,5.85-1,9,1.08,2.89,2.19,5.86-1.68,7.82-.54.27-.76,1.38-.92,2.14-.27,1.34.25,3.51-2,3.11a2.94,2.94,0,0,1-2-4c2.74-5.88-3.75-7.29-5.1-11.13-2.84-2.26-2.84-5.85-4.08-8.84-1.09-2.61-2.33-5.12-3.6-7.62-3-5.74-7.69-9.82-13.13-13.19C1388,832,1385.3,831.11,1385,828Z"/><path class="cls-64" d="M1396,812l-7.38-1.19,2.36-1.77C1392.56,810.09,1395.05,809.68,1396,812Z"/><path class="cls-15" d="M1359,804c-1.42,1.59-3.31.73-5,.94C1355.39,803.34,1357.27,804.21,1359,804Z"/><path class="cls-65" d="M894,342a4.75,4.75,0,0,1-3,5l1-3Z"/><path class="cls-66" d="M713,717c4.25-8.43,10.12-15.82,15.22-23.71,7.43-11.53,16-22.3,22.79-34.27,9.25-11.86,17-24.74,25.53-37.1,3.18-4.61,6.31-9.26,9.47-13.89,4.24,1.19,4.36,4,.35,8.48,2.16,1.62,6,1.3,6,5.4,0,1.39,1.42.73,1.83.43,4.28-3.14,4.93-.15,5.45,3.13a7.54,7.54,0,0,1-3.21,4.85c-1.92-.66-.68.77-.81,1.3-4.86,8.44-10.63,16.26-16,24.32-7.18,10.7-14.39,21.39-21.89,31.86a11.65,11.65,0,0,1-3.88,2.19c-.63.19-1.78.36-1.79.67-.09,5-6,6.14-6.82,10.57a3.48,3.48,0,0,1-2.5,2.79c-4.65,1.7-6.14,6-7.6,9.94-2.33,6.27-2,6.38-8.24,3.8.14.66-.46-.29-.39.08,1.34,6.73-4.07,5.27-7.3,5.59-2,.21-4.11-1-6.1.59a1.88,1.88,0,0,1-2.68-.29c-1.11-1.15-.42-2.09.4-3C711.83,719.61,713,718.63,713,717Z"/><path class="cls-67" d="M767,540c4.21,3.49,3.42,10.07,8.37,13.55,1.62-3.24,2.89-6.53,6.9-7.51,2.52-.62,1.91-3.51,2.56-5.4,1.34-3.93,4.67-6.93,4-11.91-.33-2.67,4.1-1.57,6.14-2.73,1.43,2.11-.42,3.45-1.42,4.64-3.52,4.18-3.74,8.43-1,13a19.17,19.17,0,0,1,1.36,3.51,104.13,104.13,0,0,1,6.62,23.69c.23,1.5.68,2.92-.63,4.13a1.14,1.14,0,0,1-.87,0,6,6,0,0,0-1.62-.82,7.26,7.26,0,0,1,1.57.92c.44,2.14-.84,3.43-2.38,4.39-3.1,1.92-10.78.47-13.66-2.45v0c-1.47-2.93-2.13-6.23-4-9h0c-.91-2.37-2-4.67-3-7C772.64,554.17,769,547.45,767,540Z"/><path class="cls-68" d="M799,625c-.73-5.31-4.39-1.59-5.67-1.16-3.47,1.16-4.24,1.47-2.09-2.28,1-1.82-1.25-1.93-2.2-2.49-1.62-1-3.25-2.12-6.43-.8C789,612.74,789.38,611,786,608c2.59-4,6.06-7.62,5-13,2.19-.17,2.14,1.54,2.77,4.08.46-4.5,3.36-3.44,5.51-4s4.26-3.61,6.12.47c.32.69,1.48-1.08,2.8-.49.69.3-.05-.84,0-1.34.28-4-2.73-8-.06-12,8.39,7.39,10,19.2,3.62,27.71-2.78,3.72-5.55,7.43-8.19,11.25C802.14,622.25,802,625.18,799,625Z"/><path class="cls-69" d="M808,582c.56,5.4,1.11,10.8,1.69,16.36-2.43-.27-1-2.38-2.53-2.59-1.13.39-.9,1.67-1.49,2.39a2,2,0,0,1-1.68.56c-.79-.19-.75-1-.39-1.61.46-.83,1.41-1.72.14-2.5s-1.67.58-2.44,1.09c-1,.64-2,1.54-3.17,1.12-2.53-.92-3.26,0-3.21,2.45,0,1.19-.54,2.54-2,2.21-1.16-.26-1-1.62-.72-2.54A3.19,3.19,0,0,0,791,595c-2.74-6-6.55-11.45-8-18,3.89,1.26,7.76,2.57,12,2,2.36-.34,2.82-2.53,4-4,1.29-1,.91-2.24.64-3.6A225.67,225.67,0,0,0,793,547c2.3,0,2.32,2.16,2.84,3.48,3.7,9.39,8.2,18.44,11.79,27.88C808.1,579.5,809.21,580.64,808,582Z"/><path class="cls-69" d="M779,568c2.58,2.45,3.55,5.6,4,9C780.63,574.46,779.84,571.22,779,568Z"/><path class="cls-69" d="M776,561a9.9,9.9,0,0,1,3,7A10.43,10.43,0,0,1,776,561Z"/><path class="cls-70" d="M993,266c0-.85-1.75-1.51.29-2.61,3-1.61,5.58-4,7.71-5.56-2.88-3.37-.55-6.83-.92-10,2.21-.12,1.49,2.16,3,2.77,1.54-1.64.78-3.29-.32-4.69-1.36-1.72-2.58-.31-3.85.44s-2.61,1.13-3.56,2.51c-1.65,2.4-3.61,3.08-5.11-.27-1.12-2.52-2.86-.39-4.29-.62,4.11-5.12,9.78-8.68,13.29-14.55a50,50,0,0,0,7.07-28.62c-.33-8.52-3.83-15.56-7.36-22.81,1.74.6,2.92,3.59,4.44,2.74,3.88-2.17,8.19.27,11.8-1.67a3.78,3.78,0,0,0,2.06-4.94,33.57,33.57,0,0,0-5.62-10.89c-1.24-1.6-2.44-3.14-2.68-5.22,6.23,5.51,10.14,12.55,13.08,20.17,8.44,21.91,5.92,42.83-6.09,62.73A57.07,57.07,0,0,1,997.49,264C996.08,264.93,994.74,265.9,993,266Z"/><path class="cls-1" d="M980,144c-4.79,2.19-8.76,1-12-3C972.13,141.55,976.35,141.68,980,144Z"/><path class="cls-70" d="M1008,161a2.81,2.81,0,0,1-3-3A6,6,0,0,1,1008,161Z"/><path class="cls-71" d="M534,913c5.53,1.51,10.81,3.69,16.6,4.47,9.56,1.29,18.17-.9,26.4-5.45,8.25-3.32,13.28-9.92,17.62-17.24,6.88-11.62,7.8-23.94,4.38-36.78a9.6,9.6,0,0,1,1.61,2.45c.65,2.36.08,6.06,2.14,6.79a22.73,22.73,0,0,0,8.61,1.19,7.58,7.58,0,0,0,6.69-5.57c1-3.25,1-6.55.94-9.86,1.71,1.66.72,4.64,3,6a3.13,3.13,0,0,0,3,2c1.89,1.06,3.94.26,5.9.49a2,2,0,0,1,1.38.41c-.38,4.94,3.1,9.54.66,14.87-1.37,3-3.49,4-6,5.19l-3,0c-2.82-1.6-4.54-1.46-4.92,2.41-.33,3.24-1.4,6.4-2.07,9.61,0,4.45-2.83,7.83-5,11.17-17,26.6-46.64,38.61-77.32,30.46-.28-.07-.49-.42-.73-.64,2.72-.46,5.59-.52,7.84-2.38,6-4.93,4.62-13.33-2.47-16.53C537.55,915.22,535,915.36,534,913Z"/><path class="cls-37" d="M632,862h-1c-.33-.21-.44-.43-.33-.65s.2-.33.31-.33l0,0a71.65,71.65,0,0,1,18,0c2.66-.88,5.33.48,8,0a27.12,27.12,0,0,1,11,0l30,0c3.47.37,6.46,2.21,9.77,3.14,3.84,1.07,4.26,5,4.73,8.1.42,2.89-2.47,4-4.53,5.34-6.82,4.5-14.67,3.11-22.12,3.86-4.59.46-9.25-.52-13.83.51L647,882l-18,0c4.27-4.2,9.9-3.53,15-3.51a111,111,0,0,0,17.3-1.06c4.52-.69,6.31-2.92,6.3-7.41,0-2.39-1.8-2.32-3.25-3-8.37-4-17.25-4-26.22-3.72C636.07,863.32,633.82,863.64,632,862Z"/><path class="cls-72" d="M632,862c4.65,0,9.39.57,13.92-.14,8-1.24,14.48,3.23,21.75,4.58,1.77.33,2.73,1.49,1.66,3.71-1.51,3.13-1,8.13-5.55,8.48-6.32.5-12.58,1.8-19,1.24A33.85,33.85,0,0,0,629,882h-2c-.12-2.8,3.9-1.38,4.28-4.65.37-3.07,3.4-5.63-.23-8.91C630.43,867.79,632.37,864.31,632,862Z"/><path class="cls-72" d="M617,894c-1.7-4.6.51-9.09,1.48-13.21.87-3.74,3.82-.54,5.51,1.19-2.35,0-2.67,1.87-3.37,3.57C619.48,888.36,619.45,891.69,617,894Z"/><path class="cls-73" d="M713,717c2.65,2.29-.66,2.6-1.29,3.77-.43.79-1.79,1.39-.72,2.45s1.53.12,2.11-.85c.91-1.5,3.55-1.18,3.86-.92,3.67,3,6.39-.51,9.47-1,.2-1.79-1.86-1.3-2.17-2.45-.22-.82-.42-1.69.28-2.34s1.17-.15,1.78.17a38.77,38.77,0,0,1,3.55,1.72c2.56,1.73,3.05,1.5,3.73-1.89,1.06-5.26,2.71-10.84,9-12.74.81-.24,2.09-.71,1.72-1.37-2.6-4.67,1.08-4.51,3.78-5.19.45-.11,1.2-.64,1.15-.83-1.59-6.67,4.65-6.19,7.76-8.55.93.94.4,1.77-.18,2.63-13.52,20-27.21,40-40.4,60.23a10.77,10.77,0,0,1-2.59,3,16.83,16.83,0,0,0-6.51,7.91,5.92,5.92,0,0,1-2.84,3.34c-4.18,2.11-7.5,5.06-7.89,9.93-.3,3.6-6.62,1.31-5.22,5.6,1.18,3.61-1.52,5.3-3.07,7.29a35.72,35.72,0,0,0-6.65,12.6,2.89,2.89,0,0,1-.87,1.09c-3.61.4-6.06,4-10,3.58-1.23-.12-.37.85-.39,1.26-.25,6.18-5.74,7.64-9.58,10.5-1.23.92-2.66.07-3.31-1.28-1.65-3.48-1.19-7.64-3.41-11-.2-.3.5-1.17.92-1.7,5.91-10.16,13.21-19.38,19.71-29.15.82-1.24,1.53-2.55,2.29-3.83,3.8-3.77,6.1-8.57,9-13,8.52-12.79,17.16-25.49,25.78-38.22C712.07,717.45,712.61,717.26,713,717Z"/><path class="cls-74" d="M795,828H703c.51-2.91,3-2.33,4.65-2.16,9.11.91,17.29-4.26,26.39-3.78,2.26.12,4.53-2.49,7.42-2.09.91.12,1.21-1,1.27-1.85.13-2,1.06-3.35,2.55-3.82-8.18-3.59-16.85-2.86-25.51-3.43q-17.61-1.17-35.22-1.73a3.9,3.9,0,0,1-2.3-.89c-.63-.93-.46-1.52.7-1.71,14.55,0,29.09,0,43.61,0A49.7,49.7,0,0,0,735,807c19.79.52,39.61-1.12,59.38,1.11,5.31.6,10.49,2.63,16,1.61.62-.12,1.19.52,1.6,1.06,2.48,3.3,1.1,6.9.08,10-.86,2.66-3.82,3.73-6.71,3-2.07-.54-3.29-.57-4.2,1.81C800.11,828.31,796.73,826.24,795,828Z"/><path class="cls-75" d="M889,835c-2-2.42-3.59-5.28-7-6-8.07,1.12-16.18.44-24.27.43-7.91,0-15.85.75-23.74-.49,0-.31,0-.62,0-.93,5-2.34,10.7-1.49,15.91-3.36a26.2,26.2,0,0,0,12.92-9.53c-1.19.24-2.24.83-3.29.33-13.19-6.31-27.49-5.12-41.46-6-4-.26-8-.29-12-.23-1.4,0-4.44,1-3.79-2.59,1.15-.11,2.29-.06,3.44-.07q39,0,78,0a32.5,32.5,0,0,1,7.44.64c5.26,1,7.35,5.6,10.23,9.28a29.07,29.07,0,0,1,3.43,5.34c1.11,4.41-.25,8.47-1.83,12.5-.37.92-1.07,2.42-1.84,2C897.27,833.9,892.8,837.77,889,835Z"/><path class="cls-76" d="M802,807c1,1.21,2.4.94,3.71,1,11.91.07,23.78.15,35.69,1.52,4.3.5,8.51,2,13,1.89a5.87,5.87,0,0,1,4.49,1.64c2,2.13,2.17,2,3.92-1.69.3,3.56,2.75,5.33-2.24,8.85-8.43,6-16.93,7.8-26.53,7.79H795a2.53,2.53,0,0,1,3.16-1.62c1.52.28,2.46-.44,2-2.34-.72-3,1.22-3,3.17-2.37,6.36,1.88,6.57,1.74,7.79-5.18.24-1.33,2-2.44.61-4-.66-.73-1.15-4.18-2.48-.31-.07.2-.81.34-1.15.24-24.46-7.23-49.58-3.46-74.41-4.46-1.91-.08-4,.71-5.69-.92,1-.8,2.22-.53,3.36-.53h67.26C799.78,806.5,801,806.23,802,807Z"/><path class="cls-77" d="M683,808c9.57,0,19.32-1,28.67.91,8,1.63,15.6-.09,23.37.25.49,0,1.21-.09,1.43.18,2.48,3.09,5.92,2.63,9.26,2.65,1.69,0,2.42,1,2.15,2.6-.21,1.26-.62,1.93-2.34,1.55-2.75-.6-1.29,1.83-1.48,2.83-.38,1.95.08,4.49-3.19,2.23a2.13,2.13,0,0,0-1.92-.13c-4.89,4.39-11.52,1.4-16.64,3.84-6.08,2.9-12.42,1.41-18.56,2.45-.28,0-.5.41-.75.62H657c0-2.65,2.22-2,3.64-2.17a94,94,0,0,1,9.91-.76c2.75,0,5.32.09,6.71-3a2.67,2.67,0,0,1,2.09-1.19c1.32-.23,1.67,2.57,2.29,1.44,2.42-4.43,9.18-3.88,10.35-9.35C689.34,810.75,684.09,813.21,683,808Z"/><path class="cls-78" d="M683,808c2.91,3.33,7,2.57,10.92,3.3-1.25,3.29-1.86,7.05-6.62,8-1.58.3-2.94,1.9-4.34,3-1.07.84.38,3.6-2,3.22-1.84-.28-.14-2.79-1.83-3.93-3.77,8.23-11.58,3.48-17.45,5.39-1.49.49-3.36-.52-4.64,1.05-4.32.27-8-.31-10.48-4.75-2.61-4.72-1.27-8.67,1.6-12.32C650.47,808,652,804.37,655,802c-.07.49-.34,1.33-.17,1.43,3.88,2.34,2,6.52,3.14,9.74.47,1.34.63,2.62,2.58,2,4.85-1.64,8.8-7.49,8.49-13.38,1.84,1.27,3.44,3.17,5.24,0,1.27-2.2,4.42-1.3,6.72-1.79,1.57,1.63-1,3.28,0,4.91l1.25,1A1.5,1.5,0,0,0,682,807Z"/><path class="cls-79" d="M834,828.9l48,.06c0,.34,0,.68,0,1-19,.86-37.91.33-56.86.34q-82.85,0-165.68-.17c-2.49,0-5-.24-7.46-.37,1.78-1.4,3.86-.75,5.79-.75Q745.9,828.93,834,828.9Z"/><path class="cls-80" d="M1219,740c1.71,1.62,2.7,4,5,5,11.42,0,22.91-.66,34.26.24,9.2.74,18.35-1.63,27.5.46A8.83,8.83,0,0,1,1292,750c-.4,2.5,4.71,5.48-.7,7.58-1,.39.17.65.34.84,3.38,3.83.37,7.92.46,11.87a1.61,1.61,0,0,1-2.16,1.47c-2.84-1.29-5.84.08-8.68-.78-2.17-3.51-5.52-3.74-9.16-3.5-17.62,1.14-35.26.26-52.88.51-2.15,0-4.35.24-6.35-.87-1.36-.91-2.87-1.69-3.27-3.5,2.52-5.57,8.35-8.41,13.25-6.12,1.78.84,2.26.36,2.89-1.11,1.53-3.61.16-7.35-3.94-9.38C1218.56,745.39,1217.13,743.44,1219,740Z"/><path class="cls-81" d="M1283,771c1.69-1.44,3.2-2.61,5.52-.65,1.19,1,3.8,1.92,2-1.68-.57-1.14,1-1.69,1.08-2.54.19-2.72,2.05-6-2.15-7.55a1.86,1.86,0,0,1-1.21-2.43c.59-1.45,1.51-.54,2.37-.08,2.64,1.44,2.51-.17,1.9-1.89-.49-1.39-1.49-2.64-.51-4.19,7.17,8.77,12.94,18.48,19,28,.6,1.34.91,2.88,2,3.93,3.92,3.88,3.72,7.7.2,11.71-.64.73-1.06,1.63-2,2.07-1.63.74-5.43-.53-3.21,3.82.47.92-1.62,1.33-2.71.84a37.17,37.17,0,0,0-4.52-2c-6.69-6.84-10.84-15.53-16.64-23C1283.17,774.21,1281.53,772.85,1283,771Z"/><path class="cls-82" d="M1301,798c2.66-1.78,3.8,1.86,6,2,.67-2.37-2.36-2.26-2.21-4,1.18-1.4,2.78-.94,4.21-1,2.15,0,3.56-.68,3.33-3.15a8.87,8.87,0,0,1-.18-1.4c7.51-2.66.26-5.14-.11-7.66-.23-1.62-.69-3.21-1-4.81,6.3,7.55,11.38,16,17,24,.16,1.71-.53,2.58-2.21,3.31a3.83,3.83,0,0,0-2.19,4.92,6.27,6.27,0,0,1-3.58,7.64c-1.73.83-1,4.42-4,3.12C1310.27,813.77,1304,807,1301,798Z"/><path class="cls-83" d="M672.05,881.93c1.49-1.59,3.49-1.12,5.18-.89,7.64,1,15-1.39,22.64-1.49,3.68,0,8.16-2.73,11.33-5.84,1.18-1.16-1.61-8.44-3.42-8.5-3.9-.14-6.76-2.24-9.75-4.23,14.61-.44,29.21.3,43.84-.46,7.36-.38,13.83,4.7,10.13,16.41-3.91,4.67-9,5.19-14.78,5.12C715.5,881.8,693.77,881.94,672.05,881.93Z"/><path class="cls-83" d="M649,861h-18c0-.3,0-.6,0-.89C637,860.43,643.12,858.91,649,861Z"/><path class="cls-83" d="M668,861H657A13.41,13.41,0,0,1,668,861Z"/><path class="cls-2" d="M925,298c1.53,3.91-1.4,4.85-4,6A10.28,10.28,0,0,1,925,298Z"/><path class="cls-84" d="M1045,377l20,30a58.67,58.67,0,0,0,5.67,9.25c4.73,5.93,2.67,12-4.63,14.3a3.36,3.36,0,0,0-2.09,1.24c-2.1,3.65-4.69,3-7.49,1-5.26-7-10.08-14.28-15-21.46-4-5.79-7.61-11.81-11.78-17.47-.95-1.3-2.73-2.57-1.91-4.72,2.54-1,3.34,1.44,4.83,2.47,2.19,1.5,4.26,3,6-.6,1.15-2.39,2.76-1.85,4.36-.41.83.73,1.31,1.91,3.07,2.2,1.38-5.8-1.14-10.24-4.42-14.35-1.72-2.14-3.94-4-.55-6.42C1042.86,373.26,1042.66,376.15,1045,377Z"/><path class="cls-85" d="M1041,372c-1.23,2-1.29,3.81.79,5.18,4,2.61,4.51,6.8,5.61,10.94.66,2.51.9,5.21-1,6.19-2.33,1.23-3.29-1.83-4.58-3.39a10.14,10.14,0,0,0-1.5-1.15c-.95,1.95-.85,5-3.58,5a7.6,7.6,0,0,1-6.23-3.48A15.56,15.56,0,0,0,1028,389c-3.14-.42-3.75-3.39-5.17-5.38-3.32-4.66-7.35-8.9-9.12-14.53,1-1.6,2.95-1.3,4.32-2.12,2.87-1.72,6.51-3.07,4.49-7.73-.38-.88-.54-2.26.13-2.87,3.47-3.19.85-5.45-1.11-7.7-2.13-2.43-3.06-5.44-4.43-8.25A1.63,1.63,0,0,1,1018,338c6.26,7.5,11,16,16.51,24C1036.74,365.33,1038.83,368.7,1041,372Z"/><path class="cls-86" d="M1018,338c.47,6.41,5.42,10.36,8.42,15.39a15.65,15.65,0,0,1,.72,1.86c-3.37-.54-4.31.87-3.67,3.88,1.45,6.75-.23,8.77-7.52,9.48a18.68,18.68,0,0,0-2,.39c-.16,0-.42.17-.46.12-6-7.18-11.88-14.41-15.53-23.14,1.7-4.22,5.54-1.11,8.21-2.28,1.1-.48,2.46-.37,3.56-1.88-.37-.23-.74-.63-1.16-.68-5.35-.67-3.89-.44-3.09-5.71.61-4.08,2.69-9.28-.56-13.5-1.41-1.83-1.53-3.89-2-5.94,2.89,1.28,3.6,4.29,5,6.64C1011.14,327.9,1015.45,332.39,1018,338Z"/><path class="cls-87" d="M1057,432c2.23,1.06,4.55,3,5.85-1.17.31-1,1.67-2.1,2.77-1.71,4.77,1.71,5.75-3.07,6.12-4.91.47-2.37.56-6.07-2.21-8.13-3.08-2.3-4-5.54-4.53-9.08,3.42,3,5.33,7.05,7.78,10.71,5.56,8.33,10.83,16.85,16.22,25.28-.87,2.21,0,4.25.43,6.39,1.1,5.19-1.9,9.66-6.79,10.49-.37,1.65,1.85,3.74-.41,5s-4-.68-5.66-2a7.42,7.42,0,0,1-2.07-2.83c-5.67-8.13-11.36-16.24-16.76-24.55C1057.08,434.44,1055.66,433.49,1057,432Z"/><path class="cls-88" d="M1077,462a16.16,16.16,0,0,0,2,1.4c1,.48,1.94,1.76,3.07.63.89-.89.06-2-.51-2.66-1.68-2,.1-4,1.13-3.46,5.1,2.44,4.26-2.19,5.09-4.16,1.09-2.61,1.9-5.64-1.73-7.41-.73-.36-.63-1.05-.34-1.73.41-1,.93-1.17,1.87-.56,1.27.83,1.28-.23,1.38-1.06l2,1c3.28,7.65,9.24,13.64,13,21,2.64,5.39,1.73,10.79.2,16.28-.88,3.11-2.75,4.45-5.78,3.95a16.56,16.56,0,0,0-5.36.37,3.52,3.52,0,0,1-2.7-1.9c-4.52-6.45-8.46-13.3-13.37-19.48A1.57,1.57,0,0,1,1077,462Z"/><path class="cls-89" d="M889,835c2.34-1.87,6.44,1.9,8-2.49l4.17,3.15c1.75-4.48,3.53-8.79,2.84-13.67a1.75,1.75,0,0,1,2.11.81c5.48,7.15,11.44,14,15.74,22-.43,3.6-1.09,7-6,6.54a2.9,2.9,0,0,0-3,2.07c-1.35,3.33-3.32,3.79-6,1.53-1.11-.93-2.55-.51-3.79-.9C898,847.89,892.87,841.9,889,835Z"/><path class="cls-90" d="M903,854c3.11-3.23,5,1.76,6.92,1.21,2.36-.67,2.15-6.44,5-5.63C920,851,920.06,847.89,921,845c3-.73,3,2.43,4.56,3.5,1.68,1.89,3.38,3.77,3.44,6.52,1.78,2.83-.63,6.46,1.74,9.24.23.26-.1,1.47-.5,1.73-3.61,2.32-6,5.83-8.9,8.81-1.93,2-2.64-1.71-4.35-1.79l-2-2Z"/><path class="cls-91" d="M1151,570c-.66-6.94,2.36-13.18,3.87-19.7.63-2.76,1.36-5.43,1.12-8.28,3.11,5.26-1.26,9.79-1.51,14.75-.16,3.07-1.78,6-1.49,9.24C1151.36,566.86,1152.6,569.14,1151,570Z"/><path class="cls-91" d="M1149,578c.1-2.81-.63-5.82,2-8A15.23,15.23,0,0,1,1149,578Z"/><path class="cls-91" d="M1148,584c.24-1.68-.66-3.59,1-5C1148.75,580.68,1149.64,582.59,1148,584Z"/><path class="cls-92" d="M1339,910c-1.09,2.33-1.31,5.81-5.61,3.74-.39-.19-1.31,2.89-1.3,4.46,0,3.68-.26,6.18-4.77,3.33-2.09-1.32-3.46,1.25-5.33,1.45-3.88-.68-5.35-4.24-7.49-6.74-6.33-7.37-11.17-15.68-13.51-25.25,3.3-1.11.32-3.24.75-4.85.26-1-.77-2.6,1.1-2.68,1.39-.06,1.11,1.37,1.15,2.29.1,1.83-.06,4.21,2,4.62,2.59.52,1.34-2.93,2.92-3.84,1.64.46.91,1.9,1.19,2.88s.75,1.52,1.73,1.32c.75-.15.7-.79.8-1.5.46-3.12,1.06-6-1.48-8.83-2-2.24.44-7.67,3-7.09,3.82.86,2.7-1.6,2.92-3.33,1.73-.24,1.92,1.11,2,2.2.82,14.79,7,26.7,18.81,35.7A3.12,3.12,0,0,1,1339,910Z"/><path class="cls-93" d="M1219,740c0,3.17.66,5.34,4.57,6.3,4.06,1,5.28,11,2.12,13.81-1.38,1.25-2.2-.05-2.79-.86-2.47-3.4-4.8-2.55-7.17,0-1.59,1.73-4.43,1.53-5.73,3.71-4.66-2.3-6.37-7.16-9.15-11-2.49-3.44-5-7-7.12-10.64a27.92,27.92,0,0,1-4.47-7.64,3.26,3.26,0,0,0-2.24-2.6,2,2,0,0,1-.31-2.44c1.06-1.47,2.71-1.73,4.29-2.28s3,2.62,4.34.35c1.54-2.67,3.76-5.13,3.62-8.59-.09-2.1-.73-4.35,1-6.16Z"/><path class="cls-94" d="M1200,712c1.5,7-1.33,12.74-5.39,18.69-1.87-3.87-4.61-3.68-7.63-1.69-2.29.58-2.74-1.52-3.57-2.7-3.28-4.71-6.7-9.32-10-14-.69-2.14-3.79-3.36-2.4-6.29,3.44-1.56,2.56,1.67,3.33,3.06,4.93-2.36,6.25-8.44,11.4-10.66,2.12-.91,1.08-3.52,1.28-5.4,3.37,4.3,5.52,9.55,10,13Z"/><path class="cls-95" d="M1129,539c-.67-.66-1.34-1.33-2-2-5.75-6.28-9.86-13.73-14.69-20.66-2-2.9-5.09-5.3-5.3-9.26,4-.08,8.23.49,10.61-3.95,4.27,1.16,3.49-2.7,4.66-4.65.59-1,1.26-2,2.72-1.48,5.31,3.38,6.5,10,11,14l6,10c-1,2.08,3.36,4.3-.19,6.43-.51.3.33,1.16,1,1.29,3.75.74,3.65,2.91,2.29,5.72a6.11,6.11,0,0,0-.85,3.29c.39,2.44.08,4.5-2.53,5.07s-5.55.41-7.06-2.23S1131.31,537.93,1129,539Z"/><path class="cls-96" d="M1125,497c-3.7,2.3-2.32,5.94-2.18,9.79-2.56-4.26-4.63-3.66-6.72-.31-2.73,4.38-6,1.28-9.09.52-.16-.17-.31-.34-.47-.5,1.5-3.59-2.23-2.68-3.42-4-3.55-4.4-6.25-9.39-9.5-14-.67-.95-1.95-2.09-.63-3.52,1.74-.91,3.07-2.94,5.62-.91.8.64,2.88.24,4-2.43,2.37-5.62,1.48-11.08,1.38-16.66,3.52,3.61,5.14,8.64,9,12,1.36,4.58,5.61,7.44,7,12,1.61,2.15,2.51,4.44,1.17,7.13.66-1.26,1.31-2.25,2.82-1.12Z"/><path class="cls-95" d="M1124,495c-2.4-.25-1.4,2.57-3.11,3.4-1.5-3.13,1.17-6.56-.88-9.41A10.15,10.15,0,0,1,1124,495Z"/><path class="cls-72" d="M631,861c0,.33,0,.65,0,1-2-.32-4.24.81-6-1Z"/><path class="cls-70" d="M986,248c1.17,5.66-3.2.27-4,2A5.56,5.56,0,0,1,986,248Z"/><path class="cls-70" d="M962,255.06a4.61,4.61,0,0,1-6,0Z"/><path class="cls-70" d="M972,254c-1.17,1-2.16,2.67-4,1A6.61,6.61,0,0,1,972,254Z"/><path class="cls-97" d="M912.18,355.41c-9.45,14.27-18.81,28.6-28.36,42.81q-25.89,38.55-52,77c-.46.68-1,1.28-1.56,1.91-.78.3-1.19,1.57-2.34.89,5-9.74,11.94-18.25,18-27.31,14.45-21.67,29.14-43.19,43.74-64.76L912,353C912.05,353.79,912.11,354.6,912.18,355.41Z"/><path class="cls-98" d="M828,478l2.34-.89c-12.13,18.42-24.2,36.88-36.48,55.19-1.83,2.73-2.65,5.21-1.68,8.29.34,1.15.73,2.31-.13,3.42-2.9-4.54-2.84-8.87.49-13.26,1-1.38,2.51-2.73,2.53-4.73q12.22-18,24.46-36C822.27,486,825.13,482,828,478Z"/><path class="cls-99" d="M1164.89,701.18A188.68,188.68,0,0,1,1153,683.92l1-.94,12,17C1165.64,700.41,1165.53,701,1164.89,701.18Z"/><path class="cls-100" d="M1164.89,701.18,1166,700c1.63,2,2.45,4.74,5,6,.23,2.39,2.39,3.8,3,6a1.32,1.32,0,0,1-1.06,1.14Z"/><path class="cls-101" d="M1107,507c5.39,7.89,10.68,15.84,16.23,23.61A62.47,62.47,0,0,1,1127,537l-1.49.15-20.59-30c-.54-.82-.05-1.16.66-1.39.77.08,1,.81,1.42,1.26Z"/><path class="cls-102" d="M681.06,804.89c-2.28-1.63.28-3.28,0-4.91h0a292.91,292.91,0,0,1,23.59-35.86c3-3.9,4.88-8.6,8.41-12.13,2.71-1.21,3.28-4.06,4.74-6.21,10.7-15.71,21.58-31.3,31.92-47.24,2.47-3.81,5.64-7.24,7.33-11.55,7.6-11.18,15.16-22.39,22.81-33.54,4.48-6.53,9.08-13,13.69-19.43.68-.95,1.5-1.77,1.49-3a1.2,1.2,0,0,1,1-1c1.32-1.47,2.78-2.86,3-5l4-4a1,1,0,0,1,1.39.12Q787.21,646.53,770.05,672,728.92,733,687.82,794C685.44,797.56,683.31,801.26,681.06,804.89Z"/><path class="cls-103" d="M1036,861H972l-22,0c-.1-1.11.58-1.4,1.51-1.44,1.5,0,3,0,4.5,0q130.47,0,260.94,0c2,0,4,.32,6-.31q34.17-.09,68.36-.23c1.88,0,4,.81,5.57-1.16q.48.33.39.72c-.07.28-.14.42-.24.42-1.65,2.07-4,2.07-6.31,2.07q-17.37,0-34.74,0c-1.71,1.74-4,1.56-6.07,1.57-11.79.08-23.61.66-35.34-.16-10.53-.73-21.09-.12-31.57-1.4H1036Z"/><path class="cls-104" d="M1222.94,859.16c-1.77,1.42-3.86.77-5.79.77q-130.45.08-260.92.12c-2.07,0-4.35-.82-6.21.9L940,861c-2.12-.35-4.88.93-5.88-2.3,1.82.14,3.63.4,5.45.4l280.89-.14C1221.28,859,1222.11,859.1,1222.94,859.16Z"/><path class="cls-105" d="M1301,798l15,23h0a.78.78,0,0,1-1.33.13c-7.73-9.14-13.67-19.54-20.59-29.25-4.92-6.9-9.72-13.9-14.33-21-1.38-2.12-2.8-2.72-5.25-2.67-18.65.35-37.3.51-56,.81a11.47,11.47,0,0,1-7.51-2.07c-.17-.84,0-1.3,1-.95,2,1.24,4.13,1,6.28,1,18.08,0,36.16.07,54.23-.08,4.19,0,7.88.4,10.46,4.08,1.42,4.33,4.63,7.51,7.1,11.16C1293.66,787.45,1297.34,792.7,1301,798Z"/><path class="cls-106" d="M804.37,621.09,803,621c2.16-5.7,6.78-9.74,10-14.74,2.71-4.23,3-8.49.72-12.69-2.05-3.79-2.67-8.26-5.68-11.56-4.63-11.82-9.13-23.7-15-35l-1-3c0-1.14.09-2.28.13-3.42q9,20.19,18,40.37c2,4.39,4.12,8.7,6,13.1,2.11,4.79,1.73,9.26-1.68,13.5C811,611.94,807.73,616.57,804.37,621.09Z"/><path class="cls-107" d="M998,346c4.54,8.22,10.66,15.34,16,23,3.82,7.25,9.23,13.4,14,20,2.71,6.63,8.39,11.34,11.46,17.75.71,1.47,1.7,2.82,2.56,4.23a1.7,1.7,0,0,1-1,.94c-15.43-22.06-30.76-44.18-45.39-66.79L997,345Z"/><path class="cls-108" d="M682,807c-.89-.62-.21-.84.27-1.12L805,806c.33.21.43.43.32.64s-.21.32-.32.32l-3,0H728Z"/><path class="cls-109" d="M1041,411.94l1-.94,15,21c3,6.77,7.87,12.38,12.06,18.39a77.3,77.3,0,0,1,6,9.58,1,1,0,0,1-1.52.18Q1057.26,436.05,1041,411.94Z"/><path class="cls-110" d="M925,849c-1.47-1.2-2-3.31-4-4a173.45,173.45,0,0,0-17-23c-3.48-4.81-6.11-10.29-11-14a1.5,1.5,0,0,1,1-.84c2.36.75,3.82,2.62,5.21,4.45Q911.86,828.25,924.4,845a6.74,6.74,0,0,1,.66,1.81A1.6,1.6,0,0,1,925,849Z"/><path class="cls-111" d="M1073.5,460.16,1075,460l2,2c5.23,7.74,10,15.82,16,23,2.62,6.34,7.17,11.43,11,17,.51,1.4,2.68,2,2,4l-1.07,1.12Z"/><path class="cls-112" d="M894,807.18l-1,.84c-29.29-2.29-58.64-.41-88-1v-1q41.9-.1,83.79-.25C890.74,805.76,892.23,806.79,894,807.18Z"/><path class="cls-113" d="M1172.93,713.12,1174,712l13,17a2.13,2.13,0,0,0,1,2c1.17.16,1.33,1.33,2,2q2,4,4,8a.93.93,0,0,1-1.41.16Z"/><path class="cls-114" d="M1192.59,741.13,1194,741l16,22c.68,1,1.35,2,2,3l-1,.95c-3.64-2-4.94-5.89-7.14-9C1200,752.35,1196.34,746.71,1192.59,741.13Z"/><path class="cls-115" d="M1297,858.91l-.15-1.14c.51-7.6,3.68-14.27,7.33-20.77.68,0,1.23.09.79,1-2.38,6.48-6,12.53-6.54,19.65C1298.42,858.1,1297.52,858.49,1297,858.91Z"/><path class="cls-116" d="M1305,838l-.79-1a55.45,55.45,0,0,1,8.91-12.68c.81-.92,2.21-1.58,1.51-3.22L1316,821c.48,3.57-3.32,5-4,8C1308.66,831.22,1308.43,835.85,1305,838Z"/><path class="cls-117" d="M925,849l.06-2.18c3,2.12,4.72,5.29,6.73,8.22a1.32,1.32,0,0,1-.81,1l-2-1Q927,852,925,849Z"/><path class="cls-104" d="M931,856l.81-1c1,1.15,2.2,2.19,2.47,3.83C932.6,858.54,931.75,857.32,931,856Z"/><path class="cls-59" d="M1080.87,871.46c1.36,1.87,4.52,1.67,5.23,5.21C1083.55,875,1079.51,876.31,1080.87,871.46Z"/><path class="cls-118" d="M1183,861h73c1.31,1.51,3.2,1.26,4.65.89,3.79-1,7.36,2.66,11.19.32.43-.26,2.44,1.18,2.42,1.22-1.62,3.49,2.92,5.86,1.28,9.17.66.12,1,.3,1.28.2,1.47-.53,3-3.36,4.36-1,1.25,2.15-.64,3.26-2.88,4.52-2.9,1.63-5.47,5.06-8.81,4.37-6.79-1.39-13.43.79-20.08-.14-1.46-.2-2.23-.19-2.41,1.38h-54c.74-1.17,2.78-.59,3-1.28,2.67-7.51,6.53-2.59,9.68-.81,2.08,1.18,2.53.17,3.43-1.14,2.8-4.05,3.18-4.13,8.56-6.1,2.63-1,2.58-2.82.44-4.4a29.57,29.57,0,0,0-13.87-6.11c1.93,2.26,2.64,4.49,1.45,6.77-.9,1.71-2.49.94-4,.9,2.94-4.2,2.25-5.37-2.1-6.86C1194.09,861,1188.3,863.28,1183,861Z"/><path class="cls-119" d="M1339,910c-12.44-7.74-18.36-19.6-21.26-33.43-.46-2.2,1.54-4.63-.73-6.59a2.21,2.21,0,0,1,0-3c1-4-.79-8.7,3-12,4.06-11.44,12.14-19.46,22-26a64.36,64.36,0,0,1,28-4,1.71,1.71,0,0,1,.13,2.16,64.61,64.61,0,0,0-22.38,3.73c-15.1,5.65-26.07,21.17-26.5,37.22-.46,17.11,6.29,30.26,20.4,39.77,1.48,1,3.29,1.78,3.56,3.91a.72.72,0,0,1-1.24.21Z"/><path class="cls-92" d="M1320,855l-3,12a33.76,33.76,0,0,0-.65-4.3C1315.31,859,1316,856.24,1320,855Z"/><path class="cls-92" d="M1317,867v3c-1.07-.75-2.13-1.51-3.26-2.32C1314.75,866.46,1316,867.21,1317,867Z"/><path class="cls-38" d="M962.78,874.62c.39-1.46.78-2.83,2.54-3,.17,0,.59.77.59,1.18C965.9,875,964.63,875.19,962.78,874.62Z"/><path class="cls-120" d="M1343.93,912l1.52-.2c1.55-.38,3,.21,4.39.62,15.84,4.44,30.44,2.09,43.21-8.52,8.87-7.36,13.59-17.15,14.51-28.61.68-8.42-.2-16.65-4.48-24.21a5.73,5.73,0,0,1-.82-3.85c.28-.81.68-1.45,1.71-1.25,3.93,5,5.14,11.14,7,17,1.73,9.19.28,18-3.06,26.61-6.66,17.08-27.38,29.58-44.92,27.58-5.6-.64-11.19-.65-16.42-3.11A4.81,4.81,0,0,1,1343.93,912Z"/><path class="cls-121" d="M1404,846l-1.08,1.15c-1.81.11-2.6-1.33-3.44-2.47-6.2-8.42-14.91-12.83-24.64-15.67-1.7-.5-3.66-.48-4.85-2.16V825c5.22-.09,9.94,2.33,15,3,5.83,5.24,13.71,8.11,17.81,15.34C1403.25,844.16,1403.57,845.08,1404,846Z"/><path class="cls-68" d="M796,630l-1,1a2.29,2.29,0,0,1-.68-3c.09-.23.77-.2,1.17-.29Z"/><path class="cls-69" d="M799.07,575.08l-4.49-.32C797,572.06,797,572.06,799.07,575.08Z"/><path class="cls-78" d="M713,752c-2.88,7.11-8.15,12.71-12.17,19.11-5.78,9.22-12,18.18-18.05,27.22A10.45,10.45,0,0,1,681,800c-.88-2.6.45-4.72,1.54-6.87.72-1.4,3.67-2.1,1.26-4.48-.21-.21.5-1.67,1.7-2,3.83-1.1,5.17-4.35,3.36-7.84-1.2-2.33.6-2.39,2-2.78,2.19-.58,5.39.75,4.21-4.37-.49-2.09,3.68-6.81,6.55-7.71a7.18,7.18,0,0,0,5.18-5C708.07,755.72,710.54,753.88,713,752Z"/><path class="cls-66" d="M706.72,728.07c1.78.23,3.13-2.67,4.81-.75.82.94-.15,1.91-.92,2.5C708.6,731.37,707.94,729,706.72,728.07Z"/><path class="cls-66" d="M717.85,729c-.21.66-.58,1.37-1.28,1.17-.29-.09-.43-1.14-.38-1.73,0-.33.59-.91.87-.89C717.88,727.6,718,728.29,717.85,729Z"/><path class="cls-81" d="M1290,764.28c-.31.49-.47,1.1-.77,1.17-.8.21-1.11-.43-1-1.08a1.22,1.22,0,0,1,.79-.86C1289.24,763.47,1289.58,764,1290,764.28Z"/><path class="cls-80" d="M1297,758.44l-1.51,4.12c-.52-.19-1-.22-1.06-.41C1293.48,760.22,1294.24,759.1,1297,758.44Z"/><path class="cls-94" d="M1190,733l-2-2C1190.7,729.61,1189.66,732,1190,733Z"/><path class="cls-95" d="M1106,506c-.56-1.39-2.13-2.26-2-4,.45.2.92.38,1.35.61,1.28.67,3.08-1.57,4,.52s-2.32.75-2.26,2.37c0,.49,0,1,0,1.48Z"/></svg>